<svg width="11" height="10" viewBox="0 0 11 10" fill="none" xmlns="http://www.w3.org/2000/svg">
<path fill-rule="evenodd" clip-rule="evenodd" d="M5.77985 1.18461C5.37419 1.06448 4.94463 1 4.5 1C4.05537 1 3.62581 1.06448 3.22014 1.18461L4.5 2.46447L5.77985 1.18461ZM0.0215237 5.05706C0.00728653 5.20278 0 5.35054 0 5.5C0 7.98528 2.01472 10 4.5 10C6.98528 10 9 7.98528 9 5.5C9 5.35054 8.99271 5.20278 8.97848 5.05706L6.26777 7.76777C5.29146 8.74408 3.70854 8.74408 2.73223 7.76777L0.0215237 5.05706Z" fill="#B6B6B6"/>
<path d="M2 3.5L4.5 6L9.5 1" stroke="black" stroke-width="2"/>
</svg>
