<svg width="69" height="69" viewBox="0 0 69 69" fill="none" xmlns="http://www.w3.org/2000/svg">
<g filter="url(#filter0_dd)">
<circle cx="34.5" cy="34.5" r="25.5" fill="#00A2FD"/>
</g>
<rect x="21.0789" y="35.8421" width="26.8421" height="13.4211" rx="2.68421" stroke="white" stroke-width="2.68421" stroke-linecap="round"/>
<path d="M28.4604 35.1708V24.434C28.4604 22.4208 29.2657 18.3945 32.4868 18.3945C35.7078 18.3945 36.0657 22.4208 35.842 24.434C35.6183 26.2235 36.1104 29.8024 39.8683 29.8024C43.6262 29.8024 44.1183 26.2235 43.8947 24.434V18.3945" stroke="white" stroke-width="2.68421"/>
<circle cx="27.7894" cy="39.8675" r="1.34211" fill="white"/>
<circle cx="30.4737" cy="42.553" r="1.34211" fill="white"/>
<circle cx="39.8685" cy="45.2366" r="1.34211" fill="white"/>
<circle cx="39.8685" cy="41.2112" r="1.34211" fill="white"/>
<circle cx="43.8946" cy="45.2366" r="1.34211" fill="white"/>
<circle cx="43.8946" cy="41.2112" r="1.34211" fill="white"/>
<circle cx="27.7894" cy="45.2366" r="1.34211" fill="white"/>
<circle cx="25.1053" cy="42.553" r="1.34211" fill="white"/>
<defs>
<filter id="filter0_dd" x="0.947369" y="0.947369" width="67.1053" height="67.1053" filterUnits="userSpaceOnUse" color-interpolation-filters="sRGB">
<feFlood flood-opacity="0" result="BackgroundImageFix"/>
<feColorMatrix in="SourceAlpha" type="matrix" values="0 0 0 0 0 0 0 0 0 0 0 0 0 0 0 0 0 0 127 0"/>
<feOffset dx="4.02632" dy="4.02632"/>
<feGaussianBlur stdDeviation="2.01316"/>
<feColorMatrix type="matrix" values="0 0 0 0 0 0 0 0 0 0.0466668 0 0 0 0 0.466667 0 0 0 0.15 0"/>
<feBlend mode="normal" in2="BackgroundImageFix" result="effect1_dropShadow"/>
<feColorMatrix in="SourceAlpha" type="matrix" values="0 0 0 0 0 0 0 0 0 0 0 0 0 0 0 0 0 0 127 0"/>
<feOffset dx="-4.02632" dy="-4.02632"/>
<feGaussianBlur stdDeviation="2.01316"/>
<feColorMatrix type="matrix" values="0 0 0 0 1 0 0 0 0 1 0 0 0 0 1 0 0 0 0.5 0"/>
<feBlend mode="normal" in2="effect1_dropShadow" result="effect2_dropShadow"/>
<feBlend mode="normal" in="SourceGraphic" in2="effect2_dropShadow" result="shape"/>
</filter>
</defs>
</svg>
