<svg width="69" height="69" viewBox="0 0 69 69" fill="none" xmlns="http://www.w3.org/2000/svg">
<g filter="url(#filter0_dd)">
<circle cx="34.5" cy="34.5" r="25.5" fill="#2300FD"/>
</g>
<path d="M50.6041 23.6969C50.6041 23.46 50.5414 23.2274 50.4223 23.0226C50.3032 22.8178 50.1321 22.6482 49.9262 22.5309C49.7204 22.4137 49.4872 22.353 49.2503 22.3551C49.0134 22.3572 48.7813 22.4219 48.5776 22.5427C47.7917 23.0109 46.9455 23.3694 46.0625 23.6083C44.8022 22.527 43.1948 21.9353 41.5342 21.9415C39.7126 21.9436 37.9631 22.6536 36.6552 23.9215C35.3473 25.1894 34.5832 26.9159 34.5244 28.7365C30.9326 28.1639 27.6773 26.2892 25.3793 23.4701C25.2408 23.3023 25.0641 23.1702 24.8639 23.085C24.6637 22.9997 24.446 22.9638 24.2291 22.9802C24.0122 22.9982 23.8029 23.0687 23.6194 23.1856C23.4358 23.3025 23.2835 23.4623 23.1755 23.6513C22.6219 24.6175 22.304 25.7006 22.2476 26.8127C22.1912 27.9248 22.3978 29.0345 22.8507 30.0518L22.8481 30.0531C22.644 30.1785 22.4757 30.3542 22.3591 30.5634C22.2425 30.7725 22.1817 31.0082 22.1824 31.2476C22.1802 31.4446 22.1923 31.6415 22.2186 31.8368C22.3557 33.5252 23.1039 35.1057 24.323 36.2818C24.2403 36.4396 24.1899 36.6122 24.1747 36.7896C24.1594 36.9671 24.1798 37.1458 24.2345 37.3153C24.7659 38.9716 25.8963 40.3701 27.4045 41.2369C25.8721 41.8294 24.2174 42.0358 22.5864 41.8382C22.2846 41.8006 21.9791 41.8667 21.7198 42.0255C21.4605 42.1843 21.2628 42.4265 21.1591 42.7123C21.0554 42.9981 21.0518 43.3107 21.149 43.5988C21.2461 43.887 21.4382 44.1336 21.6939 44.2982C24.4991 46.1048 27.7654 47.0651 31.102 47.0643C34.8857 47.1069 38.5775 45.8979 41.603 43.6253C44.6285 41.3527 46.8181 38.144 47.8314 34.4982C48.3051 32.9102 48.5469 31.262 48.5494 29.6049L48.548 29.3365C49.2488 28.5806 49.7917 27.6924 50.1447 26.724C50.4978 25.7556 50.654 24.7265 50.6041 23.6969ZM46.1671 28.0078C45.9452 28.2698 45.8328 28.6072 45.8531 28.9499C45.8665 29.1714 45.8652 29.3942 45.8652 29.6049C45.8623 31.0049 45.6571 32.3972 45.2559 33.7386C44.4287 36.841 42.5843 39.5761 40.018 41.5058C37.4517 43.4354 34.3121 44.4481 31.102 44.3815C29.9493 44.3816 28.8006 44.246 27.6796 43.9775C29.1094 43.5164 30.4462 42.8057 31.6281 41.8784C31.8461 41.7071 32.0056 41.4724 32.0848 41.2068C32.164 40.9411 32.159 40.6574 32.0704 40.3947C31.9819 40.132 31.8141 39.9031 31.5903 39.7396C31.3664 39.5761 31.0974 39.4859 30.8202 39.4814C29.7045 39.464 28.6392 39.0141 27.8487 38.2266C28.0492 38.189 28.2482 38.142 28.446 38.0856C28.7359 38.0032 28.9897 37.8256 29.1663 37.5814C29.343 37.3372 29.4324 37.0406 29.42 36.7395C29.4076 36.4383 29.2941 36.1501 29.098 35.9212C28.9018 35.6924 28.6343 35.5362 28.3386 35.4779C27.691 35.35 27.0817 35.0745 26.558 34.6727C26.0342 34.2709 25.6102 33.7538 25.3189 33.1615C25.5615 33.1946 25.8056 33.2152 26.0503 33.2232C26.3411 33.228 26.6259 33.14 26.8634 32.9721C27.1008 32.8041 27.2786 32.5649 27.371 32.2891C27.4596 32.011 27.4552 31.7115 27.3583 31.4361C27.2614 31.1608 27.0774 30.9245 26.8341 30.7631C26.2435 30.37 25.7596 29.8364 25.4259 29.2104C25.0921 28.5843 24.9188 27.8852 24.9216 27.1757C24.9216 27.0871 24.9243 26.9972 24.9297 26.9099C27.9379 29.7158 31.8401 31.3698 35.9484 31.5805C36.1558 31.5883 36.3623 31.5489 36.5523 31.4652C36.7422 31.3815 36.9107 31.2557 37.0449 31.0973C37.1778 30.9379 37.2719 30.7499 37.3199 30.548C37.3678 30.3461 37.3683 30.1358 37.3213 29.9337C37.2445 29.6132 37.2053 29.2849 37.2046 28.9553C37.206 27.8074 37.6626 26.707 38.4743 25.8954C39.2859 25.0837 40.3863 24.6271 41.5342 24.6257C42.1249 24.6239 42.7096 24.7447 43.2513 24.9803C43.793 25.2159 44.2799 25.5613 44.6814 25.9946C44.8362 26.1612 45.0311 26.2854 45.2474 26.3554C45.4638 26.4254 45.6945 26.4389 45.9175 26.3946C46.4689 26.2874 47.0123 26.143 47.5441 25.9624C47.1815 26.7043 46.7181 27.3926 46.1671 28.0078Z" fill="white"/>
<defs>
<filter id="filter0_dd" x="0.947369" y="0.947369" width="67.1053" height="67.1053" filterUnits="userSpaceOnUse" color-interpolation-filters="sRGB">
<feFlood flood-opacity="0" result="BackgroundImageFix"/>
<feColorMatrix in="SourceAlpha" type="matrix" values="0 0 0 0 0 0 0 0 0 0 0 0 0 0 0 0 0 0 127 0"/>
<feOffset dx="4.02632" dy="4.02632"/>
<feGaussianBlur stdDeviation="2.01316"/>
<feColorMatrix type="matrix" values="0 0 0 0 0 0 0 0 0 0.0466668 0 0 0 0 0.466667 0 0 0 0.15 0"/>
<feBlend mode="normal" in2="BackgroundImageFix" result="effect1_dropShadow"/>
<feColorMatrix in="SourceAlpha" type="matrix" values="0 0 0 0 0 0 0 0 0 0 0 0 0 0 0 0 0 0 127 0"/>
<feOffset dx="-4.02632" dy="-4.02632"/>
<feGaussianBlur stdDeviation="2.01316"/>
<feColorMatrix type="matrix" values="0 0 0 0 1 0 0 0 0 1 0 0 0 0 1 0 0 0 0.5 0"/>
<feBlend mode="normal" in2="effect1_dropShadow" result="effect2_dropShadow"/>
<feBlend mode="normal" in="SourceGraphic" in2="effect2_dropShadow" result="shape"/>
</filter>
</defs>
</svg>
