<svg width="69" height="69" viewBox="0 0 69 69" fill="none" xmlns="http://www.w3.org/2000/svg">
<g filter="url(#filter0_dd)">
<circle cx="34.5" cy="34.5" r="25.5" fill="#7000FF"/>
</g>
<path d="M47.9127 30.7871C47.8279 30.5416 47.6737 30.326 47.4689 30.1663C47.264 30.0067 47.0172 29.91 46.7584 29.8879L39.1219 28.7739L35.6995 21.8352C35.5896 21.6083 35.418 21.4169 35.2044 21.283C34.9908 21.1491 34.7437 21.0781 34.4916 21.0781C34.2395 21.0781 33.9925 21.1491 33.7788 21.283C33.5652 21.4169 33.3936 21.6083 33.2837 21.8352L29.8613 28.7605L22.2248 29.8879C21.9764 29.9232 21.7428 30.0274 21.5507 30.1887C21.3585 30.35 21.2154 30.562 21.1377 30.8005C21.0665 31.0336 21.0601 31.2817 21.1192 31.5181C21.1783 31.7545 21.3007 31.9704 21.4732 32.1426L27.0161 37.511L25.674 45.1342C25.6261 45.3858 25.6511 45.6459 25.7463 45.8837C25.8414 46.1215 26.0026 46.3271 26.2108 46.4763C26.4138 46.6214 26.6531 46.707 26.9021 46.7236C27.151 46.7402 27.3996 46.6871 27.62 46.5702L34.4916 42.9868L41.3363 46.5836C41.5247 46.6899 41.7374 46.7454 41.9537 46.7447C42.238 46.7457 42.5153 46.6564 42.7456 46.4897C42.9538 46.3405 43.115 46.1349 43.2101 45.8971C43.3052 45.6593 43.3303 45.3992 43.2824 45.1476L41.9403 37.5244L47.4832 32.156C47.677 31.9918 47.8202 31.7761 47.8962 31.5337C47.9722 31.2914 47.9779 31.0325 47.9127 30.7871ZM39.6587 36.1555C39.5013 36.3077 39.3836 36.4962 39.3157 36.7044C39.2479 36.9126 39.232 37.1342 39.2695 37.35L40.2358 42.9734L35.1895 40.2892C34.9953 40.1858 34.7787 40.1317 34.5587 40.1317C34.3387 40.1317 34.1221 40.1858 33.9279 40.2892L28.8816 42.9734L29.8479 37.35C29.8854 37.1342 29.8695 36.9126 29.8017 36.7044C29.7339 36.4962 29.6161 36.3077 29.4587 36.1555L25.4324 32.1292L31.0827 31.3105C31.3001 31.2802 31.5068 31.1971 31.6846 31.0684C31.8624 30.9397 32.006 30.7694 32.1027 30.5723L34.4916 25.4589L37.0148 30.5857C37.1115 30.7828 37.255 30.9532 37.4328 31.0819C37.6107 31.2106 37.8173 31.2937 38.0348 31.3239L43.685 32.1426L39.6587 36.1555Z" fill="white"/>
<defs>
<filter id="filter0_dd" x="0.947369" y="0.947369" width="67.1053" height="67.1053" filterUnits="userSpaceOnUse" color-interpolation-filters="sRGB">
<feFlood flood-opacity="0" result="BackgroundImageFix"/>
<feColorMatrix in="SourceAlpha" type="matrix" values="0 0 0 0 0 0 0 0 0 0 0 0 0 0 0 0 0 0 127 0"/>
<feOffset dx="4.02632" dy="4.02632"/>
<feGaussianBlur stdDeviation="2.01316"/>
<feColorMatrix type="matrix" values="0 0 0 0 0 0 0 0 0 0.0466668 0 0 0 0 0.466667 0 0 0 0.15 0"/>
<feBlend mode="normal" in2="BackgroundImageFix" result="effect1_dropShadow"/>
<feColorMatrix in="SourceAlpha" type="matrix" values="0 0 0 0 0 0 0 0 0 0 0 0 0 0 0 0 0 0 127 0"/>
<feOffset dx="-4.02632" dy="-4.02632"/>
<feGaussianBlur stdDeviation="2.01316"/>
<feColorMatrix type="matrix" values="0 0 0 0 1 0 0 0 0 1 0 0 0 0 1 0 0 0 0.5 0"/>
<feBlend mode="normal" in2="effect1_dropShadow" result="effect2_dropShadow"/>
<feBlend mode="normal" in="SourceGraphic" in2="effect2_dropShadow" result="shape"/>
</filter>
</defs>
</svg>
