<svg width="69" height="69" viewBox="0 0 69 69" fill="none" xmlns="http://www.w3.org/2000/svg">
<g filter="url(#filter0_dd)">
<circle cx="34.5" cy="34.5" r="25.5" fill="#5100FD"/>
</g>
<path d="M45.4673 26.2856C44.0447 24.8592 42.1588 23.9886 40.1504 23.8311C38.142 23.6736 36.1434 24.2395 34.5158 25.4266C32.8081 24.1565 30.6827 23.5806 28.5674 23.8148C26.4522 24.0491 24.5042 25.076 23.1159 26.689C21.7275 28.302 21.0019 30.381 21.085 32.5076C21.1682 34.6342 22.0541 36.6502 23.5642 38.1498L31.8987 46.4977C32.5966 47.1846 33.5365 47.5695 34.5158 47.5695C35.495 47.5695 36.435 47.1846 37.1329 46.4977L45.4673 38.1498C47.0344 36.5732 47.9139 34.4406 47.9139 32.2177C47.9139 29.9948 47.0344 27.8622 45.4673 26.2856ZM43.575 36.2977L35.2405 44.6322C35.1457 44.7279 35.0328 44.8039 34.9084 44.8558C34.784 44.9077 34.6505 44.9344 34.5158 44.9344C34.381 44.9344 34.2475 44.9077 34.1231 44.8558C33.9987 44.8039 33.8859 44.7279 33.791 44.6322L25.4566 36.2574C24.404 35.1815 23.8146 33.7362 23.8146 32.2311C23.8146 30.726 24.404 29.2807 25.4566 28.2048C26.5291 27.1459 27.9756 26.5521 29.4829 26.5521C30.9901 26.5521 32.4366 27.1459 33.5092 28.2048C33.634 28.3306 33.7824 28.4304 33.9459 28.4986C34.1095 28.5667 34.2849 28.6018 34.4621 28.6018C34.6393 28.6018 34.8147 28.5667 34.9782 28.4986C35.1418 28.4304 35.2902 28.3306 35.415 28.2048C36.4875 27.1459 37.9341 26.5521 39.4413 26.5521C40.9485 26.5521 42.3951 27.1459 43.4676 28.2048C44.5346 29.2666 45.1433 30.7041 45.1634 32.2092C45.1835 33.7144 44.6133 35.1675 43.575 36.2574V36.2977Z" fill="white"/>
<defs>
<filter id="filter0_dd" x="0.947369" y="0.947369" width="67.1053" height="67.1053" filterUnits="userSpaceOnUse" color-interpolation-filters="sRGB">
<feFlood flood-opacity="0" result="BackgroundImageFix"/>
<feColorMatrix in="SourceAlpha" type="matrix" values="0 0 0 0 0 0 0 0 0 0 0 0 0 0 0 0 0 0 127 0"/>
<feOffset dx="4.02632" dy="4.02632"/>
<feGaussianBlur stdDeviation="2.01316"/>
<feColorMatrix type="matrix" values="0 0 0 0 0 0 0 0 0 0.0466668 0 0 0 0 0.466667 0 0 0 0.15 0"/>
<feBlend mode="normal" in2="BackgroundImageFix" result="effect1_dropShadow"/>
<feColorMatrix in="SourceAlpha" type="matrix" values="0 0 0 0 0 0 0 0 0 0 0 0 0 0 0 0 0 0 127 0"/>
<feOffset dx="-4.02632" dy="-4.02632"/>
<feGaussianBlur stdDeviation="2.01316"/>
<feColorMatrix type="matrix" values="0 0 0 0 1 0 0 0 0 1 0 0 0 0 1 0 0 0 0.5 0"/>
<feBlend mode="normal" in2="effect1_dropShadow" result="effect2_dropShadow"/>
<feBlend mode="normal" in="SourceGraphic" in2="effect2_dropShadow" result="shape"/>
</filter>
</defs>
</svg>
