<svg width="69" height="69" viewBox="0 0 69 69" fill="none" xmlns="http://www.w3.org/2000/svg">
<g filter="url(#filter0_dd)">
<circle cx="34.5" cy="34.5" r="25.5" fill="#00A2FD"/>
</g>
<path d="M29.3733 23.7623H32.1917C32.5477 23.7623 32.8891 23.6209 33.1407 23.3692C33.3924 23.1175 33.5338 22.7762 33.5338 22.4202C33.5338 22.0643 33.3924 21.7229 33.1407 21.4712C32.8891 21.2195 32.5477 21.0781 32.1917 21.0781H29.3733C29.0174 21.0781 28.676 21.2195 28.4243 21.4712C28.1726 21.7229 28.0312 22.0643 28.0312 22.4202C28.0312 22.7762 28.1726 23.1175 28.4243 23.3692C28.676 23.6209 29.0174 23.7623 29.3733 23.7623ZM22.4212 33.5329C22.7772 33.5329 23.1185 33.3915 23.3702 33.1398C23.6219 32.8881 23.7633 32.5467 23.7633 32.1908V29.3723C23.7633 29.0164 23.6219 28.675 23.3702 28.4233C23.1185 28.1716 22.7772 28.0302 22.4212 28.0302C22.0653 28.0302 21.7239 28.1716 21.4722 28.4233C21.2205 28.675 21.0791 29.0164 21.0791 29.3723V32.1908C21.0791 32.5467 21.2205 32.8881 21.4722 33.1398C21.7239 33.3915 22.0653 33.5329 22.4212 33.5329ZM37.8017 23.7623C37.8017 24.1183 37.9431 24.4597 38.1948 24.7113C38.4465 24.963 38.7879 25.1044 39.1438 25.1044C39.4998 25.1044 39.8412 24.963 40.0928 24.7113C40.3445 24.4597 40.4859 24.1183 40.4859 23.7623V22.4202C40.4859 22.0643 40.3445 21.7229 40.0928 21.4712C39.8412 21.2195 39.4998 21.0781 39.1438 21.0781H37.8017C37.4458 21.0781 37.1044 21.2195 36.8527 21.4712C36.601 21.7229 36.4596 22.0643 36.4596 22.4202C36.4596 22.7762 36.601 23.1175 36.8527 23.3692C37.1044 23.6209 37.4458 23.7623 37.8017 23.7623ZM46.5791 28.5134H40.4859C40.4859 28.1574 40.3445 27.8161 40.0928 27.5644C39.8412 27.3127 39.4998 27.1713 39.1438 27.1713C38.7879 27.1713 38.4465 27.3127 38.1948 27.5644C37.9431 27.8161 37.8017 28.1574 37.8017 28.5134H29.8565C29.5005 28.5134 29.1592 28.6548 28.9075 28.9065C28.6558 29.1582 28.5144 29.4995 28.5144 29.8555V37.8008C28.1584 37.8008 27.817 37.9422 27.5654 38.1938C27.3137 38.4455 27.1723 38.7869 27.1723 39.1429C27.1723 39.4988 27.3137 39.8402 27.5654 40.0919C27.817 40.3436 28.1584 40.485 28.5144 40.485V46.5781C28.5144 46.9341 28.6558 47.2754 28.9075 47.5271C29.1592 47.7788 29.5005 47.9202 29.8565 47.9202H46.5791C46.9351 47.9202 47.2764 47.7788 47.5281 47.5271C47.7798 47.2754 47.9212 46.9341 47.9212 46.5781V29.8555C47.9212 29.4995 47.7798 29.1582 47.5281 28.9065C47.2764 28.6548 46.9351 28.5134 46.5791 28.5134ZM45.237 45.236H31.1986V31.1976H45.237V45.236ZM23.7633 21.0781H22.4212C22.0653 21.0781 21.7239 21.2195 21.4722 21.4712C21.2205 21.7229 21.0791 22.0643 21.0791 22.4202V23.7623C21.0791 24.1183 21.2205 24.4597 21.4722 24.7113C21.7239 24.963 22.0653 25.1044 22.4212 25.1044C22.7772 25.1044 23.1185 24.963 23.3702 24.7113C23.6219 24.4597 23.7633 24.1183 23.7633 23.7623C24.1193 23.7623 24.4606 23.6209 24.7123 23.3692C24.964 23.1175 25.1054 22.7762 25.1054 22.4202C25.1054 22.0643 24.964 21.7229 24.7123 21.4712C24.4606 21.2195 24.1193 21.0781 23.7633 21.0781ZM23.7633 37.8008C23.7633 37.4448 23.6219 37.1034 23.3702 36.8517C23.1185 36.6001 22.7772 36.4587 22.4212 36.4587C22.0653 36.4587 21.7239 36.6001 21.4722 36.8517C21.2205 37.1034 21.0791 37.4448 21.0791 37.8008V39.1429C21.0791 39.4988 21.2205 39.8402 21.4722 40.0919C21.7239 40.3436 22.0653 40.485 22.4212 40.485H23.7633C24.1193 40.485 24.4606 40.3436 24.7123 40.0919C24.964 39.8402 25.1054 39.4988 25.1054 39.1429C25.1054 38.7869 24.964 38.4455 24.7123 38.1938C24.4606 37.9422 24.1193 37.8008 23.7633 37.8008Z" fill="white"/>
<defs>
<filter id="filter0_dd" x="0.947369" y="0.947369" width="67.1053" height="67.1053" filterUnits="userSpaceOnUse" color-interpolation-filters="sRGB">
<feFlood flood-opacity="0" result="BackgroundImageFix"/>
<feColorMatrix in="SourceAlpha" type="matrix" values="0 0 0 0 0 0 0 0 0 0 0 0 0 0 0 0 0 0 127 0"/>
<feOffset dx="4.02632" dy="4.02632"/>
<feGaussianBlur stdDeviation="2.01316"/>
<feColorMatrix type="matrix" values="0 0 0 0 0 0 0 0 0 0.0466668 0 0 0 0 0.466667 0 0 0 0.15 0"/>
<feBlend mode="normal" in2="BackgroundImageFix" result="effect1_dropShadow"/>
<feColorMatrix in="SourceAlpha" type="matrix" values="0 0 0 0 0 0 0 0 0 0 0 0 0 0 0 0 0 0 127 0"/>
<feOffset dx="-4.02632" dy="-4.02632"/>
<feGaussianBlur stdDeviation="2.01316"/>
<feColorMatrix type="matrix" values="0 0 0 0 1 0 0 0 0 1 0 0 0 0 1 0 0 0 0.5 0"/>
<feBlend mode="normal" in2="effect1_dropShadow" result="effect2_dropShadow"/>
<feBlend mode="normal" in="SourceGraphic" in2="effect2_dropShadow" result="shape"/>
</filter>
</defs>
</svg>
