<svg width="69" height="69" viewBox="0 0 69 69" fill="none" xmlns="http://www.w3.org/2000/svg">
<g filter="url(#filter0_dd)">
<circle cx="34.5" cy="34.5" r="25.5" fill="#7000FF"/>
<circle cx="34.5" cy="34.5" r="25.5" fill="url(#paint0_radial)" fill-opacity="0.2"/>
</g>
<path d="M30.4737 37.1837C30.2082 37.1837 29.9487 37.2624 29.728 37.4099C29.5073 37.5574 29.3353 37.767 29.2337 38.0122C29.1321 38.2574 29.1056 38.5273 29.1573 38.7876C29.2091 39.048 29.337 39.2871 29.5246 39.4748C29.7123 39.6625 29.9515 39.7903 30.2118 39.8421C30.4722 39.8939 30.742 39.8673 30.9873 39.7657C31.2325 39.6642 31.4421 39.4921 31.5896 39.2714C31.7371 39.0507 31.8158 38.7912 31.8158 38.5258C31.8158 38.1699 31.6744 37.8285 31.4227 37.5768C31.171 37.3251 30.8296 37.1837 30.4737 37.1837ZM21.0789 35.8416C20.723 35.8416 20.3816 35.983 20.1299 36.2347C19.8782 36.4864 19.7368 36.8277 19.7368 37.1837V39.8679C19.7368 40.2239 19.8782 40.5652 20.1299 40.8169C20.3816 41.0686 20.723 41.21 21.0789 41.21C21.4349 41.21 21.7762 41.0686 22.0279 40.8169C22.2796 40.5652 22.421 40.2239 22.421 39.8679V37.1837C22.421 36.8277 22.2796 36.4864 22.0279 36.2347C21.7762 35.983 21.4349 35.8416 21.0789 35.8416ZM47.921 35.8416C47.5651 35.8416 47.2237 35.983 46.972 36.2347C46.7203 36.4864 46.5789 36.8277 46.5789 37.1837V39.8679C46.5789 40.2239 46.7203 40.5652 46.972 40.8169C47.2237 41.0686 47.5651 41.21 47.921 41.21C48.277 41.21 48.6183 41.0686 48.87 40.8169C49.1217 40.5652 49.2631 40.2239 49.2631 39.8679V37.1837C49.2631 36.8277 49.1217 36.4864 48.87 36.2347C48.6183 35.983 48.277 35.8416 47.921 35.8416ZM41.2105 26.4469H35.8421V24.729C36.2478 24.4947 36.5851 24.1584 36.8205 23.7535C37.056 23.3485 37.1814 22.889 37.1842 22.4205C37.1842 21.7086 36.9014 21.0259 36.398 20.5225C35.8946 20.0191 35.2119 19.7363 34.5 19.7363C33.7881 19.7363 33.1053 20.0191 32.602 20.5225C32.0986 21.0259 31.8158 21.7086 31.8158 22.4205C31.8186 22.889 31.944 23.3485 32.1794 23.7535C32.4149 24.1584 32.7522 24.4947 33.1579 24.729V26.4469H27.7894C26.7216 26.4469 25.6975 26.8711 24.9424 27.6261C24.1873 28.3812 23.7631 29.4053 23.7631 30.4732V42.5521C23.7631 43.62 24.1873 44.6441 24.9424 45.3992C25.6975 46.1542 26.7216 46.5784 27.7894 46.5784H41.2105C42.2783 46.5784 43.3025 46.1542 44.0575 45.3992C44.8126 44.6441 45.2368 43.62 45.2368 42.5521V30.4732C45.2368 29.4053 44.8126 28.3812 44.0575 27.6261C43.3025 26.8711 42.2783 26.4469 41.2105 26.4469ZM36.8084 29.1311L36.1373 31.8153H32.8626L32.1916 29.1311H36.8084ZM42.5526 42.5521C42.5526 42.9081 42.4112 43.2494 42.1595 43.5011C41.9078 43.7528 41.5665 43.8942 41.2105 43.8942H27.7894C27.4335 43.8942 27.0921 43.7528 26.8404 43.5011C26.5887 43.2494 26.4473 42.9081 26.4473 42.5521V30.4732C26.4473 30.1172 26.5887 29.7759 26.8404 29.5242C27.0921 29.2725 27.4335 29.1311 27.7894 29.1311H29.4268L30.4737 33.4795C30.5471 33.7773 30.7204 34.0409 30.9646 34.2265C31.2088 34.4121 31.5092 34.5084 31.8158 34.4995H37.1842C37.4908 34.5084 37.7912 34.4121 38.0354 34.2265C38.2795 34.0409 38.4528 33.7773 38.5263 33.4795L39.5731 29.1311H41.2105C41.5665 29.1311 41.9078 29.2725 42.1595 29.5242C42.4112 29.7759 42.5526 30.1172 42.5526 30.4732V42.5521ZM38.5263 37.1837C38.2608 37.1837 38.0014 37.2624 37.7807 37.4099C37.5599 37.5574 37.3879 37.767 37.2863 38.0122C37.1848 38.2574 37.1582 38.5273 37.21 38.7876C37.2618 39.048 37.3896 39.2871 37.5773 39.4748C37.765 39.6625 38.0041 39.7903 38.2645 39.8421C38.5248 39.8939 38.7947 39.8673 39.0399 39.7657C39.2851 39.6642 39.4947 39.4921 39.6422 39.2714C39.7897 39.0507 39.8684 38.7912 39.8684 38.5258C39.8684 38.1699 39.727 37.8285 39.4753 37.5768C39.2236 37.3251 38.8822 37.1837 38.5263 37.1837Z" fill="white"/>
<defs>
<filter id="filter0_dd" x="0.947369" y="0.947369" width="67.1053" height="67.1053" filterUnits="userSpaceOnUse" color-interpolation-filters="sRGB">
<feFlood flood-opacity="0" result="BackgroundImageFix"/>
<feColorMatrix in="SourceAlpha" type="matrix" values="0 0 0 0 0 0 0 0 0 0 0 0 0 0 0 0 0 0 127 0"/>
<feOffset dx="4.02632" dy="4.02632"/>
<feGaussianBlur stdDeviation="2.01316"/>
<feColorMatrix type="matrix" values="0 0 0 0 0 0 0 0 0 0.0466668 0 0 0 0 0.466667 0 0 0 0.15 0"/>
<feBlend mode="normal" in2="BackgroundImageFix" result="effect1_dropShadow"/>
<feColorMatrix in="SourceAlpha" type="matrix" values="0 0 0 0 0 0 0 0 0 0 0 0 0 0 0 0 0 0 127 0"/>
<feOffset dx="-4.02632" dy="-4.02632"/>
<feGaussianBlur stdDeviation="2.01316"/>
<feColorMatrix type="matrix" values="0 0 0 0 1 0 0 0 0 1 0 0 0 0 1 0 0 0 0.5 0"/>
<feBlend mode="normal" in2="effect1_dropShadow" result="effect2_dropShadow"/>
<feBlend mode="normal" in="SourceGraphic" in2="effect2_dropShadow" result="shape"/>
</filter>
<radialGradient id="paint0_radial" cx="0" cy="0" r="1" gradientUnits="userSpaceOnUse" gradientTransform="translate(34.5 34.5) rotate(90) scale(25.5)">
<stop stop-color="white"/>
<stop offset="1" stop-color="white" stop-opacity="0"/>
</radialGradient>
</defs>
</svg>
