<svg width="69" height="69" viewBox="0 0 69 69" fill="none" xmlns="http://www.w3.org/2000/svg">
<g filter="url(#filter0_dd)">
<circle cx="34.5" cy="34.5" r="25.5" fill="#00CFFD"/>
</g>
<path d="M44.9895 28.2987C44.8631 28.1387 44.7019 28.0096 44.5182 27.9213C44.3345 27.8329 44.1331 27.7876 43.9292 27.7887H29.1661V27.1176C29.1677 26.5334 29.36 25.9656 29.7136 25.5005C30.0673 25.0355 30.563 24.6985 31.1255 24.5408C31.4869 24.8895 31.9656 25.0905 32.4676 25.1044H33.8098C34.3437 25.1044 34.8557 24.8923 35.2333 24.5148C35.6108 24.1373 35.8229 23.6252 35.8229 23.0913C35.8229 22.5574 35.6108 22.0453 35.2333 21.6678C34.8557 21.2902 34.3437 21.0781 33.8098 21.0781H32.4676C32.1651 21.0785 31.8666 21.1476 31.5946 21.2801C31.3226 21.4126 31.0842 21.6051 30.8974 21.8431C29.6603 22.0662 28.5408 22.7164 27.7339 23.6803C26.927 24.6441 26.4839 25.8606 26.4819 27.1176V27.7887H25.1398C24.9359 27.7876 24.7345 27.8329 24.5508 27.9213C24.367 28.0096 24.2059 28.1387 24.0795 28.2987C23.945 28.458 23.8496 28.6465 23.8007 28.8492C23.7517 29.0519 23.7507 29.2631 23.7976 29.4663L24.6298 32.8081C24.8284 33.5779 25.2505 34.2716 25.8429 34.8018C26.4352 35.332 27.1712 35.675 27.9582 35.7876L29.005 45.1823H27.824C27.468 45.1823 27.1266 45.3237 26.875 45.5754C26.6233 45.8271 26.4819 46.1685 26.4819 46.5244C26.4819 46.8804 26.6233 47.2218 26.875 47.4735C27.1266 47.7251 27.468 47.8665 27.824 47.8665H41.245C41.601 47.8665 41.9423 47.7251 42.194 47.4735C42.4457 47.2218 42.5871 46.8804 42.5871 46.5244C42.5871 46.1685 42.4457 45.8271 42.194 45.5754C41.9423 45.3237 41.601 45.1823 41.245 45.1823H40.064L41.1108 35.7876C41.8922 35.6667 42.6207 35.3184 43.2055 34.7862C43.7902 34.254 44.2053 33.5613 44.399 32.7947L45.2713 29.4663C45.3183 29.2631 45.3172 29.0519 45.2683 28.8492C45.2194 28.6465 45.1239 28.458 44.9895 28.2987ZM37.3529 45.236H31.7161L30.6692 35.8413H38.3998L37.3529 45.236ZM41.7953 32.1505C41.7218 32.4483 41.5485 32.7119 41.3043 32.8975C41.0601 33.0831 40.7598 33.1794 40.4532 33.1705H28.5755C28.269 33.1794 27.9686 33.0831 27.7244 32.8975C27.4802 32.7119 27.3069 32.4483 27.2334 32.1505L26.8576 30.4729H42.2113L41.7953 32.1505Z" fill="white"/>
<defs>
<filter id="filter0_dd" x="0.947369" y="0.947369" width="67.1053" height="67.1053" filterUnits="userSpaceOnUse" color-interpolation-filters="sRGB">
<feFlood flood-opacity="0" result="BackgroundImageFix"/>
<feColorMatrix in="SourceAlpha" type="matrix" values="0 0 0 0 0 0 0 0 0 0 0 0 0 0 0 0 0 0 127 0"/>
<feOffset dx="4.02632" dy="4.02632"/>
<feGaussianBlur stdDeviation="2.01316"/>
<feColorMatrix type="matrix" values="0 0 0 0 0 0 0 0 0 0.0466668 0 0 0 0 0.466667 0 0 0 0.15 0"/>
<feBlend mode="normal" in2="BackgroundImageFix" result="effect1_dropShadow"/>
<feColorMatrix in="SourceAlpha" type="matrix" values="0 0 0 0 0 0 0 0 0 0 0 0 0 0 0 0 0 0 127 0"/>
<feOffset dx="-4.02632" dy="-4.02632"/>
<feGaussianBlur stdDeviation="2.01316"/>
<feColorMatrix type="matrix" values="0 0 0 0 1 0 0 0 0 1 0 0 0 0 1 0 0 0 0.5 0"/>
<feBlend mode="normal" in2="effect1_dropShadow" result="effect2_dropShadow"/>
<feBlend mode="normal" in="SourceGraphic" in2="effect2_dropShadow" result="shape"/>
</filter>
</defs>
</svg>
