<svg width="69" height="69" viewBox="0 0 69 69" fill="none" xmlns="http://www.w3.org/2000/svg">
<g filter="url(#filter0_dd)">
<circle cx="34.5" cy="34.5" r="25.5" fill="#5100FD"/>
</g>
<path d="M34.9026 34.125C35.6187 33.5052 36.1931 32.7385 36.5868 31.877C36.9805 31.0156 37.1842 30.0795 37.1842 29.1324C37.1842 27.3527 36.4772 25.6458 35.2187 24.3873C33.9602 23.1289 32.2534 22.4219 30.4737 22.4219C28.6939 22.4219 26.9871 23.1289 25.7286 24.3873C24.4701 25.6458 23.7631 27.3527 23.7631 29.1324C23.7631 30.0795 23.9669 31.0156 24.3605 31.877C24.7542 32.7385 25.3286 33.5052 26.0447 34.125C24.166 34.9758 22.572 36.3496 21.4533 38.0823C20.3347 39.815 19.7388 41.8332 19.7368 43.8956C19.7368 44.2515 19.8782 44.5929 20.1299 44.8446C20.3816 45.0963 20.723 45.2377 21.0789 45.2377C21.4349 45.2377 21.7762 45.0963 22.0279 44.8446C22.2796 44.5929 22.421 44.2515 22.421 43.8956C22.421 41.7599 23.2694 39.7117 24.7796 38.2015C26.2897 36.6913 28.338 35.8429 30.4737 35.8429C32.6093 35.8429 34.6576 36.6913 36.1677 38.2015C37.6779 39.7117 38.5263 41.7599 38.5263 43.8956C38.5263 44.2515 38.6677 44.5929 38.9194 44.8446C39.1711 45.0963 39.5124 45.2377 39.8684 45.2377C40.2243 45.2377 40.5657 45.0963 40.8174 44.8446C41.0691 44.5929 41.2105 44.2515 41.2105 43.8956C41.2085 41.8332 40.6126 39.815 39.494 38.0823C38.3753 36.3496 36.7814 34.9758 34.9026 34.125ZM30.4737 33.1587C29.6773 33.1587 28.8989 32.9226 28.2368 32.4802C27.5746 32.0377 27.0586 31.4089 26.7538 30.6732C26.4491 29.9375 26.3694 29.1279 26.5247 28.3469C26.6801 27.5659 27.0635 26.8485 27.6266 26.2854C28.1897 25.7223 28.9071 25.3388 29.6882 25.1835C30.4692 25.0281 31.2787 25.1078 32.0145 25.4126C32.7502 25.7173 33.379 26.2334 33.8214 26.8955C34.2638 27.5576 34.5 28.3361 34.5 29.1324C34.5 30.2002 34.0758 31.2244 33.3207 31.9794C32.5656 32.7345 31.5415 33.1587 30.4737 33.1587ZM43.5458 33.5882C44.4047 32.621 44.9657 31.4261 45.1614 30.1475C45.3571 28.8688 45.179 27.5609 44.6487 26.3811C44.1183 25.2013 43.2583 24.1999 42.1721 23.4975C41.0859 22.795 39.8198 22.4215 38.5263 22.4219C38.1703 22.4219 37.829 22.5633 37.5773 22.815C37.3256 23.0667 37.1842 23.408 37.1842 23.764C37.1842 24.1199 37.3256 24.4613 37.5773 24.713C37.829 24.9647 38.1703 25.1061 38.5263 25.1061C39.5941 25.1061 40.6182 25.5303 41.3733 26.2854C42.1284 27.0404 42.5526 28.0646 42.5526 29.1324C42.5507 29.8373 42.3638 30.5294 42.0105 31.1394C41.6572 31.7494 41.1499 32.256 40.5394 32.6085C40.3405 32.7232 40.1743 32.8872 40.0568 33.0846C39.9393 33.2819 39.8744 33.5062 39.8684 33.7358C39.8628 33.9637 39.9153 34.1892 40.0209 34.3911C40.1266 34.5931 40.282 34.7648 40.4723 34.89L40.9958 35.239L41.1702 35.3329C42.788 36.1002 44.1528 37.3139 45.1039 38.8309C46.055 40.3479 46.5528 42.1051 46.5387 43.8956C46.5387 44.2515 46.6801 44.5929 46.9318 44.8446C47.1834 45.0963 47.5248 45.2377 47.8808 45.2377C48.2367 45.2377 48.5781 45.0963 48.8298 44.8446C49.0815 44.5929 49.2229 44.2515 49.2229 43.8956C49.2338 41.836 48.718 39.8078 47.7244 38.0038C46.7307 36.1998 45.2923 34.6797 43.5458 33.5882Z" fill="white"/>
<defs>
<filter id="filter0_dd" x="0.947369" y="0.947369" width="67.1053" height="67.1053" filterUnits="userSpaceOnUse" color-interpolation-filters="sRGB">
<feFlood flood-opacity="0" result="BackgroundImageFix"/>
<feColorMatrix in="SourceAlpha" type="matrix" values="0 0 0 0 0 0 0 0 0 0 0 0 0 0 0 0 0 0 127 0"/>
<feOffset dx="4.02632" dy="4.02632"/>
<feGaussianBlur stdDeviation="2.01316"/>
<feColorMatrix type="matrix" values="0 0 0 0 0 0 0 0 0 0.0466668 0 0 0 0 0.466667 0 0 0 0.15 0"/>
<feBlend mode="normal" in2="BackgroundImageFix" result="effect1_dropShadow"/>
<feColorMatrix in="SourceAlpha" type="matrix" values="0 0 0 0 0 0 0 0 0 0 0 0 0 0 0 0 0 0 127 0"/>
<feOffset dx="-4.02632" dy="-4.02632"/>
<feGaussianBlur stdDeviation="2.01316"/>
<feColorMatrix type="matrix" values="0 0 0 0 1 0 0 0 0 1 0 0 0 0 1 0 0 0 0.5 0"/>
<feBlend mode="normal" in2="effect1_dropShadow" result="effect2_dropShadow"/>
<feBlend mode="normal" in="SourceGraphic" in2="effect2_dropShadow" result="shape"/>
</filter>
</defs>
</svg>
