<svg width="69" height="69" viewBox="0 0 69 69" fill="none" xmlns="http://www.w3.org/2000/svg">
<g filter="url(#filter0_dd)">
<circle cx="34.5" cy="34.5" r="25.5" fill="#00A2FD"/>
</g>
<path d="M34.4997 30.4729C33.7033 30.4729 32.9249 30.709 32.2628 31.1514C31.6006 31.5938 31.0846 32.2227 30.7798 32.9584C30.4751 33.6941 30.3954 34.5036 30.5507 35.2847C30.7061 36.0657 31.0895 36.7831 31.6526 37.3462C32.2157 37.9093 32.9331 38.2928 33.7142 38.4481C34.4952 38.6035 35.3048 38.5238 36.0405 38.219C36.7762 37.9143 37.405 37.3982 37.8474 36.7361C38.2898 36.074 38.526 35.2955 38.526 34.4992C38.526 33.4313 38.1018 32.4072 37.3467 31.6521C36.5916 30.8971 35.5675 30.4729 34.4997 30.4729ZM34.4997 35.8413C34.2342 35.8413 33.9747 35.7626 33.754 35.6151C33.5333 35.4676 33.3613 35.258 33.2597 35.0128C33.1581 34.7675 33.1316 34.4977 33.1833 34.2373C33.2351 33.977 33.363 33.7379 33.5507 33.5502C33.7384 33.3625 33.9775 33.2346 34.2378 33.1829C34.4982 33.1311 34.768 33.1577 35.0133 33.2592C35.2585 33.3608 35.4681 33.5328 35.6156 33.7535C35.7631 33.9743 35.8418 34.2337 35.8418 34.4992C35.8418 34.8551 35.7004 35.1965 35.4487 35.4482C35.197 35.6999 34.8556 35.8413 34.4997 35.8413ZM46.5786 33.1571H45.1426C44.843 30.7949 43.7668 28.5994 42.0831 26.9157C40.3995 25.2321 38.2039 24.1558 35.8418 23.8563V22.4202C35.8418 22.0643 35.7004 21.7229 35.4487 21.4712C35.197 21.2195 34.8556 21.0781 34.4997 21.0781C34.1437 21.0781 33.8023 21.2195 33.5507 21.4712C33.299 21.7229 33.1576 22.0643 33.1576 22.4202V23.8563C30.7954 24.1558 28.5999 25.2321 26.9162 26.9157C25.2326 28.5994 24.1563 30.7949 23.8568 33.1571H22.4207C22.0648 33.1571 21.7234 33.2985 21.4717 33.5502C21.22 33.8019 21.0786 34.1432 21.0786 34.4992C21.0786 34.8551 21.22 35.1965 21.4717 35.4482C21.7234 35.6999 22.0648 35.8413 22.4207 35.8413H23.8568C24.1563 38.2034 25.2326 40.399 26.9162 42.0826C28.5999 43.7663 30.7954 44.8425 33.1576 45.1421V46.5781C33.1576 46.9341 33.299 47.2754 33.5507 47.5271C33.8023 47.7788 34.1437 47.9202 34.4997 47.9202C34.8556 47.9202 35.197 47.7788 35.4487 47.5271C35.7004 47.2754 35.8418 46.9341 35.8418 46.5781V45.1421C38.2039 44.8425 40.3995 43.7663 42.0831 42.0826C43.7668 40.399 44.843 38.2034 45.1426 35.8413H46.5786C46.9346 35.8413 47.2759 35.6999 47.5276 35.4482C47.7793 35.1965 47.9207 34.8551 47.9207 34.4992C47.9207 34.1432 47.7793 33.8019 47.5276 33.5502C47.2759 33.2985 46.9346 33.1571 46.5786 33.1571ZM34.4997 42.5518C32.907 42.5518 31.3501 42.0795 30.0259 41.1947C28.7016 40.3099 27.6695 39.0522 27.06 37.5808C26.4505 36.1094 26.2911 34.4902 26.6018 32.9282C26.9125 31.3661 27.6794 29.9313 28.8056 28.8051C29.9318 27.6789 31.3666 26.912 32.9287 26.6013C34.4907 26.2906 36.1098 26.45 37.5813 27.0595C39.0527 27.669 40.3103 28.7011 41.1952 30.0254C42.08 31.3496 42.5523 32.9065 42.5523 34.4992C42.5523 36.6349 41.7039 38.6831 40.1937 40.1932C38.6836 41.7034 36.6354 42.5518 34.4997 42.5518Z" fill="white"/>
<defs>
<filter id="filter0_dd" x="0.947369" y="0.947369" width="67.1053" height="67.1053" filterUnits="userSpaceOnUse" color-interpolation-filters="sRGB">
<feFlood flood-opacity="0" result="BackgroundImageFix"/>
<feColorMatrix in="SourceAlpha" type="matrix" values="0 0 0 0 0 0 0 0 0 0 0 0 0 0 0 0 0 0 127 0"/>
<feOffset dx="4.02632" dy="4.02632"/>
<feGaussianBlur stdDeviation="2.01316"/>
<feColorMatrix type="matrix" values="0 0 0 0 0 0 0 0 0 0.0466668 0 0 0 0 0.466667 0 0 0 0.15 0"/>
<feBlend mode="normal" in2="BackgroundImageFix" result="effect1_dropShadow"/>
<feColorMatrix in="SourceAlpha" type="matrix" values="0 0 0 0 0 0 0 0 0 0 0 0 0 0 0 0 0 0 127 0"/>
<feOffset dx="-4.02632" dy="-4.02632"/>
<feGaussianBlur stdDeviation="2.01316"/>
<feColorMatrix type="matrix" values="0 0 0 0 1 0 0 0 0 1 0 0 0 0 1 0 0 0 0.5 0"/>
<feBlend mode="normal" in2="effect1_dropShadow" result="effect2_dropShadow"/>
<feBlend mode="normal" in="SourceGraphic" in2="effect2_dropShadow" result="shape"/>
</filter>
</defs>
</svg>
