<svg width="69" height="69" viewBox="0 0 69 69" fill="none" xmlns="http://www.w3.org/2000/svg">
<g filter="url(#filter0_dd)">
<circle cx="34.5" cy="34.5" r="25.5" fill="#00CFFD"/>
</g>
<path d="M47.9638 33.1331C47.9675 32.1871 47.7213 31.2569 47.2499 30.4368C46.7785 29.6166 46.0988 28.9355 45.2796 28.4625C45.2998 28.2303 45.2998 27.9968 45.2796 27.7646C45.2796 26.6968 44.8554 25.6727 44.1003 24.9176C43.3452 24.1625 42.3211 23.7383 41.2533 23.7383H41.0117C40.7882 23.1187 40.4161 22.5634 39.928 22.121C39.4399 21.6787 38.8507 21.3628 38.2122 21.2012C37.5736 21.0396 36.9051 21.0371 36.2654 21.194C35.6256 21.3508 35.0341 21.6623 34.5427 22.101C34.0514 21.6623 33.4599 21.3508 32.8201 21.194C32.1803 21.0371 31.5119 21.0396 30.8733 21.2012C30.2347 21.3628 29.6456 21.6787 29.1575 22.121C28.6694 22.5634 28.2973 23.1187 28.0738 23.7383H27.8322C26.7644 23.7383 25.7402 24.1625 24.9852 24.9176C24.2301 25.6727 23.8059 26.6968 23.8059 27.7646C23.7857 27.9968 23.7857 28.2303 23.8059 28.4625C23.0442 28.8931 22.3993 29.5033 21.9273 30.24C21.4553 30.9767 21.1705 31.8176 21.0977 32.6896C21.0249 33.5615 21.1664 34.438 21.5097 35.2427C21.8531 36.0475 22.3879 36.7562 23.0677 37.307C22.6279 38.1274 22.4089 39.048 22.4323 39.9786C22.4557 40.9092 22.7207 41.8177 23.2012 42.6149C23.6817 43.4121 24.3612 44.0707 25.1731 44.5261C25.985 44.9814 26.9014 45.2178 27.8322 45.212H28.0738C28.2973 45.8316 28.6694 46.387 29.1575 46.8293C29.6456 47.2717 30.2347 47.5875 30.8733 47.7491C31.5119 47.9108 32.1803 47.9132 32.8201 47.7564C33.4599 47.5995 34.0514 47.2881 34.5427 46.8494C35.0341 47.2881 35.6256 47.5995 36.2654 47.7564C36.9051 47.9132 37.5736 47.9108 38.2122 47.7491C38.8507 47.5875 39.4399 47.2717 39.928 46.8293C40.4161 46.387 40.7882 45.8316 41.0117 45.212H41.2533C42.1784 45.2062 43.0863 44.9613 43.889 44.5012C44.6917 44.0412 45.3618 43.3815 45.8344 42.5861C46.307 41.7908 46.5661 40.8868 46.5864 39.9618C46.6068 39.0369 46.3878 38.1224 45.9506 37.307C46.5766 36.8058 47.0824 36.1707 47.4308 35.4484C47.7791 34.7261 47.9613 33.935 47.9638 33.1331ZM33.2006 29.8449C32.9083 29.6777 32.6031 29.5341 32.288 29.4154C31.9498 29.3015 31.5803 29.3266 31.2606 29.4852C30.941 29.6438 30.6974 29.9228 30.5835 30.261C30.4696 30.5991 30.4947 30.9687 30.6533 31.2883C30.8118 31.608 31.0909 31.8515 31.429 31.9654C31.9457 32.1522 32.3926 32.493 32.7094 32.9418C33.0262 33.3906 33.1976 33.9258 33.2006 34.4752V36.5554C32.9083 36.3882 32.6031 36.2446 32.288 36.126C31.9498 36.0121 31.5803 36.0371 31.2606 36.1957C30.941 36.3543 30.6974 36.6333 30.5835 36.9715C30.4696 37.3096 30.4947 37.6792 30.6533 37.9988C30.8118 38.3185 31.0909 38.5621 31.429 38.676C31.9457 38.8627 32.3926 39.2035 32.7094 39.6523C33.0262 40.1011 33.1976 40.6363 33.2006 41.1857V43.8699C33.2006 44.2259 33.0592 44.5672 32.8075 44.8189C32.5558 45.0706 32.2145 45.212 31.8585 45.212C31.5989 45.2103 31.3453 45.1333 31.1285 44.9904C30.9117 44.8475 30.7411 44.6447 30.6372 44.4067C30.8622 44.2747 31.0775 44.1267 31.2814 43.9639C31.4171 43.8511 31.5293 43.7126 31.6115 43.5565C31.6937 43.4003 31.7444 43.2295 31.7606 43.0538C31.7768 42.8781 31.7582 42.7009 31.7059 42.5323C31.6537 42.3638 31.5687 42.2072 31.4559 42.0715C31.3431 41.9358 31.2047 41.8236 31.0485 41.7414C30.8924 41.6592 30.7216 41.6085 30.5458 41.5923C30.3701 41.5761 30.1929 41.5947 30.0244 41.647C29.8558 41.6992 29.6992 41.7842 29.5635 41.897C29.0789 42.305 28.4657 42.5284 27.8322 42.5278C27.1203 42.5278 26.4376 42.245 25.9342 41.7416C25.4308 41.2382 25.148 40.5555 25.148 39.8436C25.1544 39.3384 25.3033 38.8453 25.5775 38.421C25.8787 38.475 26.1841 38.5019 26.4901 38.5015C26.846 38.5015 27.1874 38.3601 27.4391 38.1084C27.6908 37.8567 27.8322 37.5153 27.8322 37.1594C27.8322 36.8034 27.6908 36.4621 27.4391 36.2104C27.1874 35.9587 26.846 35.8173 26.4901 35.8173C26.1731 35.8191 25.8587 35.7599 25.564 35.6428C25.0813 35.4687 24.6587 35.1599 24.3461 34.753C24.0335 34.3461 23.8441 33.8581 23.8003 33.3468C23.7565 32.8356 23.8602 32.3225 24.099 31.8683C24.3379 31.4142 24.7019 31.038 25.148 30.7844C25.3387 30.9598 25.5454 31.1171 25.7654 31.2541C26.075 31.4321 26.4427 31.4798 26.7875 31.3866C27.1324 31.2935 27.4261 31.0672 27.604 30.7575C27.782 30.4479 27.8297 30.0802 27.7366 29.7353C27.6434 29.3905 27.4171 29.0968 27.1075 28.9189C26.9185 28.8146 26.761 28.6617 26.6512 28.476C26.5271 28.2605 26.4709 28.0126 26.4901 27.7646C26.4901 27.4087 26.6315 27.0673 26.8832 26.8156C27.1349 26.5639 27.4763 26.4225 27.8322 26.4225C27.9257 26.4095 28.0206 26.4095 28.114 26.4225C28.1851 26.6382 28.2703 26.8489 28.369 27.0533C28.4567 27.2071 28.574 27.342 28.714 27.4503C28.8541 27.5586 29.0141 27.6381 29.185 27.6843C29.3559 27.7304 29.5343 27.7423 29.7098 27.7193C29.8853 27.6962 30.0546 27.6386 30.2077 27.5499C30.5053 27.3709 30.7219 27.0835 30.812 26.7481C30.9021 26.4128 30.8587 26.0555 30.6909 25.7515C30.5783 25.5456 30.5183 25.3151 30.5164 25.0804C30.5164 24.7245 30.6578 24.3831 30.9095 24.1314C31.1612 23.8797 31.5026 23.7383 31.8585 23.7383C32.2145 23.7383 32.5558 23.8797 32.8075 24.1314C33.0592 24.3831 33.2006 24.7245 33.2006 25.0804V29.8449ZM43.5214 35.6428C43.2268 35.7599 42.9124 35.8191 42.5954 35.8173C42.2394 35.8173 41.898 35.9587 41.6463 36.2104C41.3947 36.4621 41.2533 36.8034 41.2533 37.1594C41.2533 37.5153 41.3947 37.8567 41.6463 38.1084C41.898 38.3601 42.2394 38.5015 42.5954 38.5015C42.9014 38.5019 43.2068 38.475 43.508 38.421C43.7822 38.8453 43.931 39.3384 43.9375 39.8436C43.9375 40.5555 43.6547 41.2382 43.1513 41.7416C42.6479 42.245 41.9652 42.5278 41.2533 42.5278C40.6198 42.5284 40.0065 42.305 39.5219 41.897C39.2479 41.6692 38.8945 41.5596 38.5396 41.5923C38.1847 41.625 37.8574 41.7974 37.6296 42.0715C37.4018 42.3456 37.2922 42.6989 37.3249 43.0538C37.3576 43.4087 37.53 43.736 37.804 43.9639C38.0079 44.1267 38.2232 44.2747 38.4483 44.4067C38.3444 44.6447 38.1737 44.8475 37.957 44.9904C37.7402 45.1333 37.4866 45.2103 37.2269 45.212C36.871 45.212 36.5296 45.0706 36.2779 44.8189C36.0262 44.5672 35.8848 44.2259 35.8848 43.8699V41.1857C35.8878 40.6363 36.0593 40.1011 36.3761 39.6523C36.6929 39.2035 37.1398 38.8627 37.6564 38.676C37.9946 38.5621 38.2736 38.3185 38.4322 37.9988C38.5908 37.6792 38.6158 37.3096 38.5019 36.9715C38.388 36.6333 38.1445 36.3543 37.8248 36.1957C37.5052 36.0371 37.1356 36.0121 36.7975 36.126C36.4823 36.2446 36.1771 36.3882 35.8848 36.5554V34.4752C35.8878 33.9258 36.0593 33.3906 36.3761 32.9418C36.6929 32.493 37.1398 32.1522 37.6564 31.9654C37.8238 31.909 37.9785 31.8202 38.1116 31.704C38.2448 31.5878 38.3537 31.4466 38.4322 31.2883C38.5107 31.13 38.5573 30.9578 38.5692 30.7816C38.5812 30.6053 38.5583 30.4284 38.5019 30.261C38.4455 30.0935 38.3567 29.9388 38.2405 29.8057C38.1244 29.6726 37.9831 29.5637 37.8248 29.4852C37.6665 29.4067 37.4944 29.3601 37.3181 29.3481C37.1418 29.3362 36.9649 29.359 36.7975 29.4154C36.4823 29.5341 36.1771 29.6777 35.8848 29.8449V25.0804C35.8848 24.7245 36.0262 24.3831 36.2779 24.1314C36.5296 23.8797 36.871 23.7383 37.2269 23.7383C37.5829 23.7383 37.9243 23.8797 38.176 24.1314C38.4276 24.3831 38.569 24.7245 38.569 25.0804C38.5671 25.3151 38.5072 25.5456 38.3946 25.7515C38.3053 25.9039 38.2469 26.0724 38.2229 26.2473C38.1989 26.4223 38.2096 26.6003 38.2545 26.7711C38.2994 26.9419 38.3775 27.1022 38.4845 27.2428C38.5914 27.3833 38.7251 27.5014 38.8777 27.5902C39.0309 27.6789 39.2001 27.7365 39.3757 27.7595C39.5512 27.7826 39.7295 27.7707 39.9004 27.7245C40.0713 27.6784 40.2314 27.5989 40.3715 27.4906C40.5115 27.3823 40.6287 27.2474 40.7164 27.0936C40.8169 26.8761 40.9021 26.6519 40.9714 26.4225C41.0649 26.4095 41.1598 26.4095 41.2533 26.4225C41.6092 26.4225 41.9506 26.5639 42.2023 26.8156C42.454 27.0673 42.5954 27.4087 42.5954 27.7646C42.5933 28.0277 42.514 28.2844 42.3672 28.5028C42.2574 28.677 42.105 28.8202 41.9243 28.9189C41.6146 29.0968 41.3883 29.3905 41.2952 29.7353C41.2021 30.0802 41.2498 30.4479 41.4277 30.7575C41.6057 31.0672 41.8994 31.2935 42.2442 31.3866C42.589 31.4798 42.9567 31.4321 43.2664 31.2541C43.5074 31.1238 43.7325 30.9662 43.9375 30.7844C44.3851 31.0335 44.752 31.4055 44.995 31.8565C45.238 32.3075 45.3469 32.8185 45.3088 33.3294C45.2707 33.8402 45.0872 34.3295 44.78 34.7394C44.4728 35.1493 44.0547 35.4628 43.5751 35.6428H43.5214Z" fill="white"/>
<defs>
<filter id="filter0_dd" x="0.947369" y="0.947369" width="67.1053" height="67.1053" filterUnits="userSpaceOnUse" color-interpolation-filters="sRGB">
<feFlood flood-opacity="0" result="BackgroundImageFix"/>
<feColorMatrix in="SourceAlpha" type="matrix" values="0 0 0 0 0 0 0 0 0 0 0 0 0 0 0 0 0 0 127 0"/>
<feOffset dx="4.02632" dy="4.02632"/>
<feGaussianBlur stdDeviation="2.01316"/>
<feColorMatrix type="matrix" values="0 0 0 0 0 0 0 0 0 0.0466668 0 0 0 0 0.466667 0 0 0 0.15 0"/>
<feBlend mode="normal" in2="BackgroundImageFix" result="effect1_dropShadow"/>
<feColorMatrix in="SourceAlpha" type="matrix" values="0 0 0 0 0 0 0 0 0 0 0 0 0 0 0 0 0 0 127 0"/>
<feOffset dx="-4.02632" dy="-4.02632"/>
<feGaussianBlur stdDeviation="2.01316"/>
<feColorMatrix type="matrix" values="0 0 0 0 1 0 0 0 0 1 0 0 0 0 1 0 0 0 0.5 0"/>
<feBlend mode="normal" in2="effect1_dropShadow" result="effect2_dropShadow"/>
<feBlend mode="normal" in="SourceGraphic" in2="effect2_dropShadow" result="shape"/>
</filter>
</defs>
</svg>
