<svg width="69" height="69" viewBox="0 0 69 69" fill="none" xmlns="http://www.w3.org/2000/svg">
<g filter="url(#filter0_dd)">
<circle cx="34.5" cy="34.5" r="25.5" fill="#2300FD"/>
</g>
<path d="M47.8211 25.9376C47.6849 25.6096 47.4243 25.349 47.0964 25.2128C46.935 25.1441 46.7618 25.1076 46.5864 25.1055H39.8759C39.5199 25.1055 39.1786 25.2469 38.9269 25.4986C38.6752 25.7503 38.5338 26.0916 38.5338 26.4476C38.5338 26.8035 38.6752 27.1449 38.9269 27.3966C39.1786 27.6483 39.5199 27.7897 39.8759 27.7897H43.3519L35.8496 35.292L31.434 30.8631C31.3093 30.7373 31.1608 30.6375 30.9973 30.5693C30.8337 30.5012 30.6583 30.4661 30.4811 30.4661C30.304 30.4661 30.1285 30.5012 29.965 30.5693C29.8014 30.6375 29.653 30.7373 29.5282 30.8631L21.4756 38.9157C21.3498 39.0405 21.25 39.1889 21.1818 39.3525C21.1137 39.516 21.0786 39.6915 21.0786 39.8686C21.0786 40.0458 21.1137 40.2212 21.1818 40.3848C21.25 40.5483 21.3498 40.6968 21.4756 40.8215C21.6004 40.9473 21.7488 41.0472 21.9124 41.1153C22.0759 41.1834 22.2513 41.2185 22.4285 41.2185C22.6057 41.2185 22.7811 41.1834 22.9446 41.1153C23.1082 41.0472 23.2566 40.9473 23.3814 40.8215L30.4811 33.7084L34.8967 38.1373C35.0214 38.2631 35.1699 38.3629 35.3334 38.4311C35.497 38.4992 35.6724 38.5343 35.8496 38.5343C36.0267 38.5343 36.2021 38.4992 36.3657 38.4311C36.5292 38.3629 36.6777 38.2631 36.8024 38.1373L45.2443 29.682V33.1581C45.2443 33.514 45.3857 33.8554 45.6374 34.1071C45.8891 34.3588 46.2304 34.5002 46.5864 34.5002C46.9423 34.5002 47.2837 34.3588 47.5354 34.1071C47.7871 33.8554 47.9285 33.514 47.9285 33.1581V26.4476C47.9264 26.2722 47.8899 26.0989 47.8211 25.9376Z" fill="white"/>
<defs>
<filter id="filter0_dd" x="0.947369" y="0.947369" width="67.1053" height="67.1053" filterUnits="userSpaceOnUse" color-interpolation-filters="sRGB">
<feFlood flood-opacity="0" result="BackgroundImageFix"/>
<feColorMatrix in="SourceAlpha" type="matrix" values="0 0 0 0 0 0 0 0 0 0 0 0 0 0 0 0 0 0 127 0"/>
<feOffset dx="4.02632" dy="4.02632"/>
<feGaussianBlur stdDeviation="2.01316"/>
<feColorMatrix type="matrix" values="0 0 0 0 0 0 0 0 0 0.0466668 0 0 0 0 0.466667 0 0 0 0.15 0"/>
<feBlend mode="normal" in2="BackgroundImageFix" result="effect1_dropShadow"/>
<feColorMatrix in="SourceAlpha" type="matrix" values="0 0 0 0 0 0 0 0 0 0 0 0 0 0 0 0 0 0 127 0"/>
<feOffset dx="-4.02632" dy="-4.02632"/>
<feGaussianBlur stdDeviation="2.01316"/>
<feColorMatrix type="matrix" values="0 0 0 0 1 0 0 0 0 1 0 0 0 0 1 0 0 0 0.5 0"/>
<feBlend mode="normal" in2="effect1_dropShadow" result="effect2_dropShadow"/>
<feBlend mode="normal" in="SourceGraphic" in2="effect2_dropShadow" result="shape"/>
</filter>
</defs>
</svg>
