<svg width="69" height="69" viewBox="0 0 69 69" fill="none" xmlns="http://www.w3.org/2000/svg">
<g filter="url(#filter0_dd)">
<circle cx="34.5" cy="34.5" r="25.5" fill="#0074FD"/>
</g>
<path d="M46.4097 41.2097L42.7726 34.9287C43.5168 33.5617 43.9045 32.0293 43.8999 30.4729C43.8999 27.9812 42.9101 25.5916 41.1483 23.8298C39.3864 22.0679 36.9968 21.0781 34.5052 21.0781C32.0135 21.0781 29.624 22.0679 27.8621 23.8298C26.1002 25.5916 25.1104 27.9812 25.1104 30.4729C25.1058 32.0293 25.4936 33.5617 26.2378 34.9287L22.6007 41.2097C22.4827 41.4141 22.4207 41.6461 22.4209 41.8821C22.4211 42.1181 22.4836 42.3499 22.602 42.5541C22.7205 42.7583 22.8907 42.9277 23.0954 43.0451C23.3002 43.1625 23.5323 43.2238 23.7683 43.2229H27.6202L29.5797 46.5244C29.6457 46.6339 29.7271 46.7333 29.8212 46.8197C30.07 47.0595 30.4017 47.1941 30.7473 47.1955H30.9352C31.1378 47.1678 31.3314 47.0941 31.5012 46.9801C31.671 46.8661 31.8125 46.7149 31.9149 46.5379L34.5052 42.0821L37.0955 46.5781C37.1994 46.7526 37.3415 46.9013 37.5112 47.0129C37.681 47.1245 37.8738 47.1961 38.0752 47.2223H38.2631C38.6133 47.2244 38.9504 47.0896 39.2026 46.8465C39.2928 46.7651 39.3698 46.67 39.4307 46.5647L41.3902 43.2631H45.242C45.4785 43.2641 45.7111 43.2025 45.9161 43.0847C46.1212 42.9668 46.2914 42.7969 46.4097 42.5921C46.5351 42.3833 46.6013 42.1444 46.6013 41.9009C46.6013 41.6574 46.5351 41.4184 46.4097 41.2097ZM30.7339 43.2631L29.5394 41.2634C29.4218 41.065 29.255 40.9002 29.0552 40.7851C28.8554 40.6699 28.6292 40.6081 28.3986 40.6058H26.0768L27.996 37.2773C29.3176 38.5508 30.9833 39.4093 32.7873 39.7468L30.7339 43.2631ZM34.5052 37.1834C33.178 37.1834 31.8806 36.7898 30.777 36.0525C29.6735 35.3151 28.8134 34.2671 28.3055 33.0409C27.7976 31.8147 27.6647 30.4654 27.9236 29.1637C28.1825 27.862 28.8216 26.6663 29.7601 25.7278C30.6986 24.7893 31.8943 24.1502 33.196 23.8913C34.4977 23.6323 35.847 23.7652 37.0732 24.2731C38.2994 24.781 39.3474 25.6412 40.0848 26.7447C40.8221 27.8482 41.2157 29.1456 41.2157 30.4729C41.2157 32.2526 40.5087 33.9595 39.2502 35.2179C37.9918 36.4764 36.2849 37.1834 34.5052 37.1834ZM40.6118 40.6058C40.3811 40.6081 40.155 40.6699 39.9552 40.7851C39.7554 40.9002 39.5886 41.065 39.471 41.2634L38.2765 43.2631L36.2365 39.7065C38.0342 39.3622 39.6937 38.5044 41.0144 37.2371L42.9336 40.5655L40.6118 40.6058Z" fill="white"/>
<defs>
<filter id="filter0_dd" x="0.947369" y="0.947369" width="67.1053" height="67.1053" filterUnits="userSpaceOnUse" color-interpolation-filters="sRGB">
<feFlood flood-opacity="0" result="BackgroundImageFix"/>
<feColorMatrix in="SourceAlpha" type="matrix" values="0 0 0 0 0 0 0 0 0 0 0 0 0 0 0 0 0 0 127 0"/>
<feOffset dx="4.02632" dy="4.02632"/>
<feGaussianBlur stdDeviation="2.01316"/>
<feColorMatrix type="matrix" values="0 0 0 0 0 0 0 0 0 0.0466668 0 0 0 0 0.466667 0 0 0 0.15 0"/>
<feBlend mode="normal" in2="BackgroundImageFix" result="effect1_dropShadow"/>
<feColorMatrix in="SourceAlpha" type="matrix" values="0 0 0 0 0 0 0 0 0 0 0 0 0 0 0 0 0 0 127 0"/>
<feOffset dx="-4.02632" dy="-4.02632"/>
<feGaussianBlur stdDeviation="2.01316"/>
<feColorMatrix type="matrix" values="0 0 0 0 1 0 0 0 0 1 0 0 0 0 1 0 0 0 0.5 0"/>
<feBlend mode="normal" in2="effect1_dropShadow" result="effect2_dropShadow"/>
<feBlend mode="normal" in="SourceGraphic" in2="effect2_dropShadow" result="shape"/>
</filter>
</defs>
</svg>
