<svg width="69" height="69" viewBox="0 0 69 69" fill="none" xmlns="http://www.w3.org/2000/svg">
<g filter="url(#filter0_dd)">
<circle cx="34.5" cy="34.5" r="25.5" fill="#00A2FD"/>
</g>
<path d="M43.8949 23.7637H25.1054C24.0376 23.7637 23.0135 24.1879 22.2584 24.943C21.5033 25.698 21.0791 26.7221 21.0791 27.79V29.3603C21.0789 29.9145 21.1931 30.4627 21.4146 30.9708V31.0513C21.6042 31.4821 21.8728 31.8736 22.2065 32.2055L30.4738 40.4192V49.2637C30.4734 49.4918 30.5311 49.7162 30.6414 49.9158C30.7518 50.1154 30.9112 50.2836 31.1046 50.4045C31.3182 50.5368 31.5647 50.6066 31.8159 50.6058C32.026 50.6045 32.2329 50.5539 32.4199 50.4581L37.7883 47.7739C38.0096 47.6624 38.1958 47.4918 38.3261 47.2809C38.4564 47.0701 38.5257 46.8273 38.5265 46.5795V40.4192L46.7402 32.2055C47.0738 31.8736 47.3424 31.4821 47.532 31.0513V30.9708C47.772 30.4667 47.9045 29.9183 47.9212 29.3603V27.79C47.9212 26.7221 47.497 25.698 46.7419 24.943C45.9868 24.1879 44.9627 23.7637 43.8949 23.7637ZM36.2315 38.916C36.1071 39.0414 36.0087 39.1902 35.9419 39.3537C35.8751 39.5172 35.8412 39.6923 35.8423 39.8689V45.7474L33.158 47.0895V39.8689C33.1591 39.6923 33.1252 39.5172 33.0584 39.3537C32.9916 39.1902 32.8932 39.0414 32.7688 38.916L25.6557 31.8163H43.3446L36.2315 38.916ZM45.237 29.1321H23.7633V27.79C23.7633 27.434 23.9047 27.0927 24.1564 26.841C24.4081 26.5893 24.7495 26.4479 25.1054 26.4479H43.8949C44.2508 26.4479 44.5922 26.5893 44.8439 26.841C45.0956 27.0927 45.237 27.434 45.237 27.79V29.1321Z" fill="white"/>
<defs>
<filter id="filter0_dd" x="0.947369" y="0.947369" width="67.1053" height="67.1053" filterUnits="userSpaceOnUse" color-interpolation-filters="sRGB">
<feFlood flood-opacity="0" result="BackgroundImageFix"/>
<feColorMatrix in="SourceAlpha" type="matrix" values="0 0 0 0 0 0 0 0 0 0 0 0 0 0 0 0 0 0 127 0"/>
<feOffset dx="4.02632" dy="4.02632"/>
<feGaussianBlur stdDeviation="2.01316"/>
<feColorMatrix type="matrix" values="0 0 0 0 0 0 0 0 0 0.0466668 0 0 0 0 0.466667 0 0 0 0.15 0"/>
<feBlend mode="normal" in2="BackgroundImageFix" result="effect1_dropShadow"/>
<feColorMatrix in="SourceAlpha" type="matrix" values="0 0 0 0 0 0 0 0 0 0 0 0 0 0 0 0 0 0 127 0"/>
<feOffset dx="-4.02632" dy="-4.02632"/>
<feGaussianBlur stdDeviation="2.01316"/>
<feColorMatrix type="matrix" values="0 0 0 0 1 0 0 0 0 1 0 0 0 0 1 0 0 0 0.5 0"/>
<feBlend mode="normal" in2="effect1_dropShadow" result="effect2_dropShadow"/>
<feBlend mode="normal" in="SourceGraphic" in2="effect2_dropShadow" result="shape"/>
</filter>
</defs>
</svg>
