<svg width="580" height="186" viewBox="0 0 580 186" fill="none" xmlns="http://www.w3.org/2000/svg">
<path d="M221.147 55.4598C237.422 55.4598 245.597 47.3598 245.597 37.7598C245.597 18.4098 216.572 23.6598 216.572 17.3598C216.572 15.5598 218.222 14.0598 223.397 14.0598C227.972 14.0598 232.847 15.3348 238.022 17.9598L243.347 5.13476C237.872 2.05976 230.597 0.559764 223.547 0.559764C207.272 0.559764 199.097 8.50976 199.097 18.2598C199.097 37.8348 228.122 32.5098 228.122 39.1098C228.122 40.9098 226.322 41.9598 221.297 41.9598C215.522 41.9598 208.922 40.0848 203.972 37.1598L198.272 50.0598C203.522 53.2848 212.372 55.4598 221.147 55.4598ZM300.765 1.75976H283.665L272.865 19.9098L262.14 1.75976H243.465L263.265 34.9848V54.2598H280.965V35.2098L300.765 1.75976ZM337.512 1.75976V25.6098L317.562 1.75976H303.012V54.2598H320.262V30.4098L340.212 54.2598H354.762V1.75976H337.512ZM380.691 40.9098V34.0098H402.891V21.2598H380.691V15.1098H405.966V1.75976H363.291V54.2598H406.941V40.9098H380.691ZM445.179 54.2598H464.079L453.054 38.0598C459.354 34.8348 462.954 29.1348 462.954 21.5598C462.954 9.40976 453.654 1.75976 439.029 1.75976H413.754V54.2598H431.454V41.0598H436.254L445.179 54.2598ZM445.104 21.5598C445.104 25.3848 442.779 27.7098 437.904 27.7098H431.454V15.4098H437.904C442.779 15.4098 445.104 17.7348 445.104 21.5598ZM504.363 39.8598C502.188 40.7598 500.088 41.1348 497.913 41.1348C490.338 41.1348 485.388 35.8848 485.388 28.0098C485.388 19.9098 490.338 14.8848 498.138 14.8848C502.788 14.8848 506.613 16.8348 509.913 20.6598L521.238 10.6848C515.913 4.15976 507.588 0.559764 497.238 0.559764C479.913 0.559764 467.538 11.8848 467.538 28.0098C467.538 44.1348 479.913 55.4598 496.863 55.4598C504.588 55.4598 513.363 53.1348 519.738 48.7848V26.5848H504.363V39.8598ZM578.28 1.75976H561.18L550.38 19.9098L539.655 1.75976H520.98L540.78 34.9848V54.2598H558.48V35.2098L578.28 1.75976ZM201.572 119.26H227.447C244.997 119.26 257.072 109.285 257.072 93.0098C257.072 76.7348 244.997 66.7598 227.447 66.7598H201.572V119.26ZM219.272 105.46V80.5598H226.697C234.122 80.5598 239.222 84.9848 239.222 93.0098C239.222 101.035 234.122 105.46 226.697 105.46H219.272ZM263.535 119.26H281.235V66.7598H263.535V119.26ZM324.48 104.86C322.305 105.76 320.205 106.135 318.03 106.135C310.455 106.135 305.505 100.885 305.505 93.0098C305.505 84.9098 310.455 79.8848 318.255 79.8848C322.905 79.8848 326.73 81.8348 330.03 85.6598L341.355 75.6848C336.03 69.1598 327.705 65.5598 317.355 65.5598C300.03 65.5598 287.655 76.8848 287.655 93.0098C287.655 109.135 300.03 120.46 316.98 120.46C324.705 120.46 333.48 118.135 339.855 113.785V91.5848H324.48V104.86ZM347.397 119.26H365.097V66.7598H347.397V119.26ZM385.018 119.26H402.718V80.4848H418.093V66.7598H369.643V80.4848H385.018V119.26ZM459.353 119.26H477.653L454.703 66.7598H437.303L414.353 119.26H432.353L435.878 110.11H455.828L459.353 119.26ZM440.753 97.3598L445.853 84.1598L450.953 97.3598H440.753ZM480.478 119.26H521.878V105.535H498.178V66.7598H480.478V119.26ZM244.247 145.11V131.76H201.572V184.26H219.272V167.46H241.172V154.11H219.272V145.11H244.247ZM276.997 185.46C294.097 185.46 306.622 173.91 306.622 158.01C306.622 142.11 294.097 130.56 276.997 130.56C259.897 130.56 247.372 142.11 247.372 158.01C247.372 173.91 259.897 185.46 276.997 185.46ZM276.997 171.135C270.472 171.135 265.222 166.185 265.222 158.01C265.222 149.835 270.472 144.885 276.997 144.885C283.522 144.885 288.772 149.835 288.772 158.01C288.772 166.185 283.522 171.135 276.997 171.135ZM344.471 184.26H363.371L352.346 168.06C358.646 164.835 362.246 159.135 362.246 151.56C362.246 139.41 352.946 131.76 338.321 131.76H313.046V184.26H330.746V171.06H335.546L344.471 184.26ZM344.396 151.56C344.396 155.385 342.071 157.71 337.196 157.71H330.746V145.41H337.196C342.071 145.41 344.396 147.735 344.396 151.56ZM394.055 185.46C410.18 185.46 419.63 176.385 419.63 160.635V131.76H402.23V160.11C402.23 168.135 399.155 171.135 394.205 171.135C389.255 171.135 386.18 168.135 386.18 160.11V131.76H368.48V160.635C368.48 176.385 377.93 185.46 394.055 185.46ZM490.744 184.26L490.594 131.76H476.044L459.394 159.735L442.294 131.76H427.744V184.26H443.869V161.16L455.269 179.535H463.069L474.469 160.335L474.619 184.26H490.744Z" fill="#1F0051"/>
<path d="M221.147 55.4598C237.422 55.4598 245.597 47.3598 245.597 37.7598C245.597 18.4098 216.572 23.6598 216.572 17.3598C216.572 15.5598 218.222 14.0598 223.397 14.0598C227.972 14.0598 232.847 15.3348 238.022 17.9598L243.347 5.13476C237.872 2.05976 230.597 0.559764 223.547 0.559764C207.272 0.559764 199.097 8.50976 199.097 18.2598C199.097 37.8348 228.122 32.5098 228.122 39.1098C228.122 40.9098 226.322 41.9598 221.297 41.9598C215.522 41.9598 208.922 40.0848 203.972 37.1598L198.272 50.0598C203.522 53.2848 212.372 55.4598 221.147 55.4598ZM300.765 1.75976H283.665L272.865 19.9098L262.14 1.75976H243.465L263.265 34.9848V54.2598H280.965V35.2098L300.765 1.75976ZM337.512 1.75976V25.6098L317.562 1.75976H303.012V54.2598H320.262V30.4098L340.212 54.2598H354.762V1.75976H337.512ZM380.691 40.9098V34.0098H402.891V21.2598H380.691V15.1098H405.966V1.75976H363.291V54.2598H406.941V40.9098H380.691ZM445.179 54.2598H464.079L453.054 38.0598C459.354 34.8348 462.954 29.1348 462.954 21.5598C462.954 9.40976 453.654 1.75976 439.029 1.75976H413.754V54.2598H431.454V41.0598H436.254L445.179 54.2598ZM445.104 21.5598C445.104 25.3848 442.779 27.7098 437.904 27.7098H431.454V15.4098H437.904C442.779 15.4098 445.104 17.7348 445.104 21.5598ZM504.363 39.8598C502.188 40.7598 500.088 41.1348 497.913 41.1348C490.338 41.1348 485.388 35.8848 485.388 28.0098C485.388 19.9098 490.338 14.8848 498.138 14.8848C502.788 14.8848 506.613 16.8348 509.913 20.6598L521.238 10.6848C515.913 4.15976 507.588 0.559764 497.238 0.559764C479.913 0.559764 467.538 11.8848 467.538 28.0098C467.538 44.1348 479.913 55.4598 496.863 55.4598C504.588 55.4598 513.363 53.1348 519.738 48.7848V26.5848H504.363V39.8598ZM578.28 1.75976H561.18L550.38 19.9098L539.655 1.75976H520.98L540.78 34.9848V54.2598H558.48V35.2098L578.28 1.75976ZM201.572 119.26H227.447C244.997 119.26 257.072 109.285 257.072 93.0098C257.072 76.7348 244.997 66.7598 227.447 66.7598H201.572V119.26ZM219.272 105.46V80.5598H226.697C234.122 80.5598 239.222 84.9848 239.222 93.0098C239.222 101.035 234.122 105.46 226.697 105.46H219.272ZM263.535 119.26H281.235V66.7598H263.535V119.26ZM324.48 104.86C322.305 105.76 320.205 106.135 318.03 106.135C310.455 106.135 305.505 100.885 305.505 93.0098C305.505 84.9098 310.455 79.8848 318.255 79.8848C322.905 79.8848 326.73 81.8348 330.03 85.6598L341.355 75.6848C336.03 69.1598 327.705 65.5598 317.355 65.5598C300.03 65.5598 287.655 76.8848 287.655 93.0098C287.655 109.135 300.03 120.46 316.98 120.46C324.705 120.46 333.48 118.135 339.855 113.785V91.5848H324.48V104.86ZM347.397 119.26H365.097V66.7598H347.397V119.26ZM385.018 119.26H402.718V80.4848H418.093V66.7598H369.643V80.4848H385.018V119.26ZM459.353 119.26H477.653L454.703 66.7598H437.303L414.353 119.26H432.353L435.878 110.11H455.828L459.353 119.26ZM440.753 97.3598L445.853 84.1598L450.953 97.3598H440.753ZM480.478 119.26H521.878V105.535H498.178V66.7598H480.478V119.26ZM244.247 145.11V131.76H201.572V184.26H219.272V167.46H241.172V154.11H219.272V145.11H244.247ZM276.997 185.46C294.097 185.46 306.622 173.91 306.622 158.01C306.622 142.11 294.097 130.56 276.997 130.56C259.897 130.56 247.372 142.11 247.372 158.01C247.372 173.91 259.897 185.46 276.997 185.46ZM276.997 171.135C270.472 171.135 265.222 166.185 265.222 158.01C265.222 149.835 270.472 144.885 276.997 144.885C283.522 144.885 288.772 149.835 288.772 158.01C288.772 166.185 283.522 171.135 276.997 171.135ZM344.471 184.26H363.371L352.346 168.06C358.646 164.835 362.246 159.135 362.246 151.56C362.246 139.41 352.946 131.76 338.321 131.76H313.046V184.26H330.746V171.06H335.546L344.471 184.26ZM344.396 151.56C344.396 155.385 342.071 157.71 337.196 157.71H330.746V145.41H337.196C342.071 145.41 344.396 147.735 344.396 151.56ZM394.055 185.46C410.18 185.46 419.63 176.385 419.63 160.635V131.76H402.23V160.11C402.23 168.135 399.155 171.135 394.205 171.135C389.255 171.135 386.18 168.135 386.18 160.11V131.76H368.48V160.635C368.48 176.385 377.93 185.46 394.055 185.46ZM490.744 184.26L490.594 131.76H476.044L459.394 159.735L442.294 131.76H427.744V184.26H443.869V161.16L455.269 179.535H463.069L474.469 160.335L474.619 184.26H490.744Z" fill="black"/>
<path d="M0.296875 5.25977V184.26H179.297V5.25977H0.296875ZM156.946 161.853H22.6478V27.6027H156.946V161.853ZM111.473 154.148L51.9994 94.6956L111.473 35.2429V66.8953L83.6632 94.6956L111.473 122.496V154.148Z" fill="#1F0051"/>
<path d="M0.296875 5.25977V184.26H179.297V5.25977H0.296875ZM156.946 161.853H22.6478V27.6027H156.946V161.853ZM111.473 154.148L51.9994 94.6956L111.473 35.2429V66.8953L83.6632 94.6956L111.473 122.496V154.148Z" fill="black"/>
</svg>
