<svg width="241" height="45" viewBox="0 0 241 45" fill="none" xmlns="http://www.w3.org/2000/svg">
<path d="M28.4345 36.8419V29.0018L21.5743 22.1417L28.4345 15.2815V7.44141L13.8096 22.1417L28.4345 36.8419Z" fill="white"/>
<path d="M0.992188 44.2231H45.2438V0.046875H0.992188V44.2231ZM6.49536 5.55005H39.6652V38.7199H6.49536V5.55005Z" fill="white"/>
<path d="M69.4399 4.87706C71.4753 4.87706 73.7369 5.63092 76.0739 7.06325C76.2247 6.76171 76.3754 6.00785 76.3 4.57551C76.3 3.21856 76.2247 2.31393 76.0739 1.937C74.1892 0.806214 71.8523 0.203125 69.1384 0.203125C65.2183 0.203125 62.1275 1.33391 59.7905 3.67088C57.4535 5.93246 56.3228 8.79713 56.3228 12.1895C56.3228 15.5819 57.4535 18.3711 59.7905 20.7081C62.1275 22.9697 65.2937 24.1759 69.1384 24.1759C71.8523 24.1759 74.1892 23.5728 76.0739 22.442C76.2247 22.0651 76.3 21.1604 76.3 19.8035C76.3 18.4465 76.2247 17.6173 76.0739 17.3157C73.7369 18.7481 71.5507 19.5019 69.4399 19.5019C67.3291 19.5019 65.5198 18.8235 64.0875 17.5419C62.6552 16.185 61.9767 14.4511 61.9767 12.2649C61.9767 10.0787 62.6552 8.26942 64.0875 6.98786C65.5198 5.55553 67.3291 4.87706 69.4399 4.87706Z" fill="white"/>
<path d="M101.861 23.4927V0.726158C100.353 0.5 98.9206 0.5 97.4883 0.726158L86.8588 14.0695V0.726158C84.9742 0.424614 83.0895 0.424614 81.2803 0.726158V23.4927C82.788 23.7189 84.2203 23.7189 85.6527 23.4927L96.2821 10.1494V23.4927C98.1667 23.8697 100.051 23.8697 101.861 23.4927Z" fill="white"/>
<path d="M127.948 23.4927V0.726158C126.063 0.424614 124.178 0.424614 122.369 0.726158V9.69709H112.946V0.726158C111.061 0.424614 109.176 0.424614 107.367 0.726158V23.4927C109.252 23.7943 111.136 23.7943 112.946 23.4927V14.371H122.369V23.5681C124.178 23.8697 126.063 23.8697 127.948 23.4927Z" fill="white"/>
<path d="M149.281 5.40049C149.583 3.89277 149.583 2.30967 149.281 0.726562H133.375V23.4931H149.281C149.583 21.91 149.583 20.4023 149.281 18.8192H138.954V14.296H148C148.301 12.7883 148.301 11.2052 148 9.62211H138.954V5.32511H149.281V5.40049Z" fill="white"/>
<path d="M169.097 2.83737C167.514 1.40504 165.478 0.726562 162.915 0.726562H153.944V23.4931C155.829 23.7947 157.714 23.7947 159.523 23.4931V16.0299H162.84C165.403 16.0299 167.438 15.3514 169.022 13.9191C170.605 12.4868 171.434 10.6775 171.434 8.41593C171.509 6.07897 170.68 4.2697 169.097 2.83737ZM162.915 11.356H159.598V5.40049H162.915C164.574 5.40049 165.78 6.38051 165.78 8.41593C165.78 10.376 164.574 11.356 162.915 11.356Z" fill="white"/>
<path d="M175.659 23.4931C177.544 23.7947 179.428 23.7947 181.238 23.4931V5.40049H190.661C190.963 3.89277 190.963 2.30967 190.661 0.726562H175.659V23.4931Z" fill="white"/>
<path d="M194.735 0.726158V23.4927C196.243 23.7189 197.675 23.7189 199.107 23.4927L209.737 10.1494V23.4927C211.621 23.7943 213.506 23.7943 215.315 23.4927V0.726158C213.808 0.5 212.375 0.5 210.943 0.726158L200.313 14.0695V0.726158C198.504 0.424614 196.62 0.424614 194.735 0.726158Z" fill="white"/>
<path d="M220.439 8.26516C220.439 11.2806 222.098 13.7683 224.812 14.9745L219.309 23.4931C220.138 23.6439 221.118 23.7193 222.324 23.7193C223.53 23.7193 224.586 23.6439 225.415 23.4931L229.938 16.5576L230.466 15.8038H232.652V23.4931C234.537 23.7947 236.421 23.7947 238.23 23.4931V7.58669V0.726562H229.033C226.47 0.726562 224.435 1.40504 222.852 2.83737C221.193 4.19432 220.439 6.00358 220.439 8.26516ZM229.033 5.40049H232.501V6.30512V11.1298H229.787H228.958C227.3 11.1298 226.093 10.1498 226.093 8.26516C226.093 6.4559 227.375 5.40049 229.033 5.40049Z" fill="white"/>
<path d="M71.8527 30.281V41.0612H68.0834V30.281C66.9527 30.1303 65.8219 30.1303 64.7665 30.281V41.0612H60.9972V30.281C59.8664 30.1303 58.7356 30.1303 57.6802 30.281V43.8505H75.2451V30.281C74.1143 30.1303 72.9835 30.1303 71.8527 30.281Z" fill="white"/>
<path d="M90.3198 30.2797C89.8675 30.2043 89.189 30.1289 88.3597 30.1289C87.5305 30.1289 86.852 30.2043 86.3997 30.2797L81.8766 36.4613V30.2797C80.7458 30.1289 79.615 30.1289 78.5596 30.2797V43.8492C79.6904 43.9999 80.8211 43.9999 81.8766 43.8492V37.2906L86.5505 43.8492C87.0028 43.9245 87.6813 43.9999 88.5105 43.9999C89.3398 43.9999 90.0182 43.9245 90.4706 43.8492L85.4197 36.8383L90.3198 30.2797Z" fill="white"/>
<path d="M98.6135 29.9805C96.5027 29.9805 94.7688 30.6589 93.4119 32.0159C92.0549 33.3728 91.3765 35.0313 91.3765 37.0667C91.3765 39.0268 92.0549 40.7607 93.4119 42.1176C94.7688 43.4746 96.5027 44.153 98.6135 44.153C100.724 44.153 102.458 43.4746 103.815 42.1176C105.172 40.7607 105.851 39.0268 105.851 37.0667C105.851 35.1067 105.172 33.3728 103.815 32.0159C102.458 30.6589 100.724 29.9805 98.6135 29.9805ZM101.327 40.233C100.574 40.9868 99.6689 41.4391 98.6135 41.4391C97.5581 41.4391 96.6535 41.0622 95.8996 40.233C95.1458 39.4037 94.7688 38.4237 94.7688 37.0667C94.7688 35.7852 95.1458 34.7298 95.8996 33.9005C96.6535 33.0713 97.5581 32.6944 98.6135 32.6944C99.6689 32.6944 100.574 33.0713 101.327 33.9005C102.081 34.6544 102.458 35.7098 102.458 37.0667C102.458 38.4237 102.081 39.4791 101.327 40.233Z" fill="white"/>
<path d="M109.55 39.7045C109.474 40.6845 108.947 41.2122 108.193 41.2122C107.967 41.2122 107.816 41.2122 107.59 41.1368C107.439 42.0415 107.439 43.0215 107.59 43.9261C108.042 44.0769 108.57 44.1523 109.173 44.1523C111.359 44.1523 112.641 42.7953 112.942 40.006L113.621 33.0705H117.088V43.8507C118.219 44.0015 119.35 44.0015 120.405 43.8507V30.2812H110.53L109.55 39.7045Z" fill="white"/>
<path d="M128.321 30.281L122.817 43.8505C123.948 44.0013 125.154 44.0013 126.285 43.8505L127.265 41.2874H132.241L133.221 43.8505C134.351 44.0013 135.482 44.0013 136.688 43.8505L131.185 30.281C130.205 30.1303 129.301 30.1303 128.321 30.281ZM128.321 38.4981L129.753 34.578L131.185 38.4981H128.321Z" fill="white"/>
<path d="M153.879 36.3875C152.975 35.5583 151.693 35.1813 150.185 35.1813H148.225V33.0705H154.03C154.181 32.1659 154.181 31.2613 154.03 30.2812H144.908V43.8507H150.261C151.768 43.8507 152.975 43.3984 153.955 42.6445C154.935 41.8153 155.387 40.7599 155.387 39.4783C155.311 38.1968 154.784 37.1414 153.879 36.3875ZM150.185 41.1368H148.225V37.8952H150.185C151.165 37.8952 151.919 38.4983 151.919 39.4783C151.844 40.5337 151.165 41.1368 150.185 41.1368Z" fill="white"/>
<path d="M167.441 30.281L161.109 38.272V30.281C159.978 30.1303 158.847 30.1303 157.792 30.281V43.8505C158.697 44.0013 159.526 44.0013 160.431 43.8505L166.763 35.8596V43.8505C167.894 44.0013 169.025 44.0013 170.08 43.8505V30.281C169.175 30.1303 168.346 30.1303 167.441 30.281Z" fill="white"/>
<path d="M180.563 36.9148C181.694 36.3117 182.448 35.1055 182.448 33.7486C182.448 31.487 180.563 30.0547 177.548 30.0547C175.889 30.0547 174.532 30.4316 173.402 31.1101C173.326 31.3362 173.251 31.864 173.251 32.6932C173.251 33.5224 173.326 33.9748 173.402 34.1255C174.834 33.2963 176.116 32.844 177.322 32.844C178.377 32.844 179.056 33.3717 179.056 34.3517C179.056 35.2563 178.528 35.8594 177.623 35.8594H175.663C175.512 36.764 175.512 37.5933 175.663 38.4979H177.699C178.754 38.4979 179.282 38.9502 179.282 39.9303C179.282 40.9857 178.302 41.5134 177.246 41.5134C175.965 41.5134 174.608 41.061 173.251 40.2318C173.175 40.3826 173.1 40.9103 173.1 41.6641C173.1 42.4934 173.175 43.0211 173.251 43.2472C174.382 43.9257 175.814 44.3026 177.472 44.3026C179.056 44.3026 180.262 43.9257 181.242 43.2472C182.222 42.5688 182.75 41.5887 182.75 40.3072C182.674 38.7241 181.845 37.5179 180.563 36.9148Z" fill="white"/>
<path d="M197.677 43.8505V30.281C196.546 30.1303 195.415 30.1303 194.36 30.281V35.6335H188.706V30.281C187.575 30.1303 186.445 30.1303 185.389 30.281V43.8505C186.52 44.0013 187.651 44.0013 188.706 43.8505V38.3473H194.36V43.8505C195.415 44.0767 196.546 44.0767 197.677 43.8505Z" fill="white"/>
<path d="M210.42 33.0705C210.57 32.1659 210.57 31.2613 210.42 30.2812H200.921V43.8507H210.42C210.57 42.9461 210.57 41.9661 210.42 41.0614H204.313V38.3475H209.741C209.892 37.4429 209.892 36.5383 209.741 35.5583H204.313V33.0705H210.42Z" fill="white"/>
<path d="M220.288 32.7697C221.494 32.7697 222.851 33.2221 224.208 34.0513C224.284 33.9005 224.359 33.3728 224.359 32.619C224.359 31.7897 224.284 31.262 224.208 31.0359C223.077 30.3574 221.72 29.9805 220.062 29.9805C217.725 29.9805 215.916 30.6589 214.483 32.0159C213.051 33.3728 212.373 35.0313 212.373 37.0667C212.373 39.1022 213.051 40.7607 214.483 42.1176C215.916 43.4746 217.725 44.153 220.062 44.153C221.72 44.153 223.077 43.7761 224.208 43.0976C224.284 42.8715 224.359 42.3438 224.359 41.5145C224.359 40.6853 224.284 40.233 224.208 40.0822C222.776 40.9114 221.494 41.3638 220.288 41.3638C219.007 41.3638 217.951 40.9868 217.122 40.1576C216.293 39.3283 215.84 38.3483 215.84 36.9914C215.84 35.7098 216.293 34.6544 217.122 33.8252C217.951 33.1467 219.007 32.7697 220.288 32.7697Z" fill="white"/>
<path d="M232.128 30.281L226.625 43.8505C227.756 44.0013 228.962 44.0013 230.093 43.8505L231.073 41.2874H236.048L237.028 43.8505C238.159 44.0013 239.29 44.0013 240.496 43.8505L234.993 30.281C234.013 30.1303 233.033 30.1303 232.128 30.281ZM234.993 38.4981H232.128L233.561 34.578L234.993 38.4981Z" fill="white"/>
</svg>
