<svg width="857" height="393" viewBox="0 0 857 393" fill="none" xmlns="http://www.w3.org/2000/svg">
<path d="M329.194 69.3683C324.234 69.3683 319.388 68.8267 314.656 67.7435C309.982 66.6032 306.133 65.0925 303.112 63.2111L309.611 48.5023C312.461 50.1556 315.654 51.4954 319.189 52.5216C322.723 53.4908 326.116 53.9754 329.365 53.9754C332.159 53.9754 334.154 53.7188 335.351 53.2057C336.549 52.6356 337.147 51.8089 337.147 50.7257C337.147 49.4715 336.349 48.5308 334.753 47.9037C333.213 47.2766 330.648 46.5925 327.056 45.8513C322.438 44.8821 318.59 43.856 315.512 42.7727C312.433 41.6325 309.753 39.8082 307.473 37.2997C305.193 34.7342 304.052 31.2851 304.052 26.9523C304.052 23.1896 305.107 19.7689 307.216 16.6903C309.326 13.6118 312.461 11.1888 316.623 9.42146C320.842 7.65413 325.945 6.77047 331.931 6.77047C336.035 6.77047 340.055 7.22655 343.988 8.13872C347.979 8.99388 351.485 10.2766 354.507 11.9869L348.435 26.6102C342.563 23.6456 337.005 22.1634 331.76 22.1634C326.572 22.1634 323.978 23.4176 323.978 25.9261C323.978 27.1233 324.747 28.0355 326.287 28.6626C327.826 29.2327 330.363 29.8598 333.898 30.5439C338.458 31.3991 342.307 32.3968 345.442 33.537C348.578 34.6202 351.286 36.4161 353.566 38.9245C355.904 41.433 357.072 44.8536 357.072 49.1865C357.072 52.9492 356.018 56.3698 353.908 59.4484C351.799 62.47 348.635 64.8929 344.416 66.7173C340.254 68.4846 335.18 69.3683 329.194 69.3683ZM397.4 46.2789V68H377.218V46.0224L354.642 8.13872H375.935L388.164 28.8336L400.478 8.13872H419.976L397.4 46.2789ZM481.544 8.13872V68H464.954L442.207 40.8059V68H422.538V8.13872H439.128L461.876 35.3328V8.13872H481.544ZM541.039 52.7781V68H491.269V8.13872H539.927V23.3606H511.108V30.3729H536.421V44.9107H511.108V52.7781H541.039ZM574.463 52.9492H568.99V68H548.808V8.13872H577.627C583.157 8.13872 587.975 9.05089 592.079 10.8752C596.184 12.6996 599.348 15.3221 601.572 18.7427C603.795 22.1634 604.907 26.1541 604.907 30.715C604.907 34.9908 603.938 38.725 601.999 41.9176C600.061 45.1102 597.267 47.6472 593.619 49.5285L606.189 68H584.639L574.463 52.9492ZM584.554 30.715C584.554 28.4916 583.87 26.7812 582.502 25.584C581.133 24.3298 579.081 23.7027 576.344 23.7027H568.99V37.7273H576.344C579.081 37.7273 581.133 37.1287 582.502 35.9315C583.87 34.6772 584.554 32.9384 584.554 30.715ZM652.122 36.4446H669.652V61.7573C666.118 64.2088 662.013 66.0901 657.338 67.4014C652.663 68.7126 648.074 69.3683 643.57 69.3683C637.185 69.3683 631.455 68.057 626.381 65.4345C621.307 62.755 617.317 59.0493 614.409 54.3174C611.558 49.5285 610.133 44.1125 610.133 38.0694C610.133 32.0262 611.558 26.6387 614.409 21.9068C617.317 17.1179 621.336 13.4122 626.467 10.7897C631.655 8.11022 637.498 6.77047 643.998 6.77047C649.87 6.77047 655.115 7.76815 659.733 9.76353C664.407 11.7019 668.284 14.5524 671.363 18.3151L658.45 29.6888C654.687 25.299 650.212 23.104 645.024 23.104C640.577 23.104 637.042 24.4438 634.42 27.1233C631.797 29.8028 630.486 33.4515 630.486 38.0694C630.486 42.5732 631.769 46.1934 634.334 48.9299C636.957 51.6664 640.434 53.0347 644.767 53.0347C647.333 53.0347 649.784 52.5501 652.122 51.5809V36.4446ZM713.826 46.2789V68H693.644V46.0224L671.068 8.13872H692.362L704.59 28.8336L716.905 8.13872H736.402L713.826 46.2789ZM306.874 82.1387H336.377C343.048 82.1387 348.92 83.3645 353.994 85.8159C359.125 88.2104 363.087 91.6595 365.881 96.1634C368.731 100.667 370.156 105.969 370.156 112.069C370.156 118.17 368.731 123.472 365.881 127.975C363.087 132.479 359.125 135.957 353.994 138.408C348.92 140.803 343.048 142 336.377 142H306.874V82.1387ZM335.522 126.265C339.855 126.265 343.304 125.039 345.87 122.588C348.492 120.079 349.804 116.573 349.804 112.069C349.804 107.566 348.492 104.088 345.87 101.636C343.304 99.1279 339.855 97.8737 335.522 97.8737H327.056V126.265H335.522ZM377.525 82.1387H397.707V142H377.525V82.1387ZM447.017 110.445H464.547V135.757C461.013 138.209 456.908 140.09 452.233 141.401C447.558 142.713 442.969 143.368 438.465 143.368C432.08 143.368 426.35 142.057 421.276 139.435C416.202 136.755 412.212 133.049 409.304 128.317C406.453 123.529 405.028 118.112 405.028 112.069C405.028 106.026 406.453 100.639 409.304 95.9068C412.212 91.1179 416.231 87.4122 421.362 84.7897C426.55 82.1102 432.393 80.7705 438.893 80.7705C444.765 80.7705 450.01 81.7682 454.628 83.7635C459.302 85.7019 463.179 88.5524 466.258 92.3151L453.345 103.689C449.582 99.299 445.107 97.104 439.919 97.104C435.472 97.104 431.937 98.4438 429.315 101.123C426.692 103.803 425.381 107.451 425.381 112.069C425.381 116.573 426.664 120.193 429.229 122.93C431.852 125.666 435.329 127.035 439.662 127.035C442.228 127.035 444.679 126.55 447.017 125.581V110.445ZM473.146 82.1387H493.328V142H473.146V82.1387ZM516.042 97.7882H498.511V82.1387H553.755V97.7882H536.224V142H516.042V97.7882ZM596.781 131.567H574.034L570.015 142H549.491L575.659 82.1387H595.499L621.667 142H600.801L596.781 131.567ZM591.223 117.029L585.408 101.978L579.593 117.029H591.223ZM624.887 82.1387H645.069V126.351H672.092V142H624.887V82.1387ZM327.056 171.361V181.623H352.027V196.844H327.056V216H306.874V156.139H355.533V171.361H327.056ZM392.876 217.368C386.433 217.368 380.647 216.029 375.516 213.349C370.385 210.669 366.366 206.964 363.458 202.232C360.55 197.443 359.097 192.055 359.097 186.069C359.097 180.083 360.55 174.724 363.458 169.992C366.366 165.203 370.385 161.469 375.516 158.79C380.647 156.11 386.433 154.77 392.876 154.77C399.318 154.77 405.104 156.11 410.235 158.79C415.366 161.469 419.386 165.203 422.293 169.992C425.201 174.724 426.654 180.083 426.654 186.069C426.654 192.055 425.201 197.443 422.293 202.232C419.386 206.964 415.366 210.669 410.235 213.349C405.104 216.029 399.318 217.368 392.876 217.368ZM392.876 201.035C395.384 201.035 397.636 200.436 399.631 199.239C401.684 197.985 403.309 196.246 404.506 194.022C405.703 191.742 406.302 189.091 406.302 186.069C406.302 183.048 405.703 180.425 404.506 178.202C403.309 175.921 401.684 174.183 399.631 172.985C397.636 171.731 395.384 171.104 392.876 171.104C390.367 171.104 388.087 171.731 386.034 172.985C384.039 174.183 382.443 175.921 381.245 178.202C380.048 180.425 379.45 183.048 379.45 186.069C379.45 189.091 380.048 191.742 381.245 194.022C382.443 196.246 384.039 197.985 386.034 199.239C388.087 200.436 390.367 201.035 392.876 201.035ZM459.634 200.949H454.161V216H433.979V156.139H462.798C468.328 156.139 473.146 157.051 477.251 158.875C481.355 160.7 484.519 163.322 486.743 166.743C488.966 170.163 490.078 174.154 490.078 178.715C490.078 182.991 489.109 186.725 487.17 189.918C485.232 193.11 482.439 195.647 478.79 197.529L491.361 216H469.811L459.634 200.949ZM469.725 178.715C469.725 176.492 469.041 174.781 467.673 173.584C466.304 172.33 464.252 171.703 461.516 171.703H454.161V185.727H461.516C464.252 185.727 466.304 185.129 467.673 183.931C469.041 182.677 469.725 180.938 469.725 178.715ZM526.347 217.368C517.168 217.368 510.013 214.888 504.882 209.928C499.751 204.968 497.186 198.013 497.186 189.062V156.139H517.368V188.464C517.368 192.854 518.137 196.046 519.677 198.042C521.273 200.037 523.553 201.035 526.518 201.035C529.482 201.035 531.734 200.037 533.274 198.042C534.87 196.046 535.668 192.854 535.668 188.464V156.139H555.508V189.062C555.508 198.013 552.942 204.968 547.811 209.928C542.68 214.888 535.526 217.368 526.347 217.368ZM618.206 216L618.035 188.72L605.037 210.612H596.143L583.145 189.661V216H564.759V156.139H581.349L600.847 188.036L619.831 156.139H636.421L636.592 216H618.206Z" fill="white"/>
<path d="M346.639 286.066V290H305.506V286.921L330.819 261.78C334.126 258.473 336.349 255.651 337.489 253.314C338.686 250.919 339.285 248.468 339.285 245.959C339.285 242.139 337.974 239.146 335.351 236.98C332.786 234.814 329.052 233.73 324.149 233.73C320.386 233.73 317.079 234.301 314.229 235.441C311.435 236.581 309.012 238.32 306.96 240.657L303.881 237.921C306.162 235.298 309.041 233.274 312.518 231.849C316.053 230.424 320.044 229.711 324.491 229.711C330.363 229.711 335.038 231.136 338.515 233.987C341.993 236.837 343.732 240.686 343.732 245.532C343.732 248.61 343.048 251.546 341.679 254.34C340.311 257.133 337.746 260.383 333.983 264.089L311.92 286.066H346.639ZM377.987 290.428C373.426 290.428 369.35 289.202 365.758 286.75C362.224 284.242 359.459 280.707 357.463 276.146C355.525 271.586 354.556 266.227 354.556 260.069C354.556 253.912 355.525 248.553 357.463 243.992C359.459 239.431 362.224 235.925 365.758 233.474C369.35 230.965 373.426 229.711 377.987 229.711C382.548 229.711 386.596 230.965 390.13 233.474C393.722 235.925 396.487 239.431 398.425 243.992C400.421 248.553 401.418 253.912 401.418 260.069C401.418 266.227 400.421 271.586 398.425 276.146C396.487 280.707 393.722 284.242 390.13 286.75C386.596 289.202 382.548 290.428 377.987 290.428ZM377.987 286.408C381.75 286.408 385.056 285.382 387.907 283.33C390.814 281.22 393.066 278.199 394.663 274.265C396.259 270.274 397.057 265.542 397.057 260.069C397.057 254.596 396.259 249.893 394.663 245.959C393.066 241.968 390.814 238.947 387.907 236.894C385.056 234.785 381.75 233.73 377.987 233.73C374.224 233.73 370.889 234.785 367.982 236.894C365.131 238.947 362.908 241.968 361.311 245.959C359.715 249.893 358.917 254.596 358.917 260.069C358.917 265.542 359.715 270.274 361.311 274.265C362.908 278.199 365.131 281.22 367.982 283.33C370.889 285.382 374.224 286.408 377.987 286.408ZM450.695 286.066V290H409.562V286.921L434.875 261.78C438.181 258.473 440.405 255.651 441.545 253.314C442.742 250.919 443.341 248.468 443.341 245.959C443.341 242.139 442.03 239.146 439.407 236.98C436.842 234.814 433.107 233.73 428.204 233.73C424.442 233.73 421.135 234.301 418.285 235.441C415.491 236.581 413.068 238.32 411.016 240.657L407.937 237.921C410.218 235.298 413.097 233.274 416.574 231.849C420.109 230.424 424.1 229.711 428.546 229.711C434.419 229.711 439.093 231.136 442.571 233.987C446.049 236.837 447.788 240.686 447.788 245.532C447.788 248.61 447.103 251.546 445.735 254.34C444.367 257.133 441.801 260.383 438.039 264.089L415.976 286.066H450.695ZM482.043 290.428C477.482 290.428 473.406 289.202 469.814 286.75C466.279 284.242 463.514 280.707 461.519 276.146C459.581 271.586 458.611 266.227 458.611 260.069C458.611 253.912 459.581 248.553 461.519 243.992C463.514 239.431 466.279 235.925 469.814 233.474C473.406 230.965 477.482 229.711 482.043 229.711C486.604 229.711 490.651 230.965 494.186 233.474C497.778 235.925 500.543 239.431 502.481 243.992C504.477 248.553 505.474 253.912 505.474 260.069C505.474 266.227 504.477 271.586 502.481 276.146C500.543 280.707 497.778 284.242 494.186 286.75C490.651 289.202 486.604 290.428 482.043 290.428ZM482.043 286.408C485.806 286.408 489.112 285.382 491.963 283.33C494.87 281.22 497.122 278.199 498.718 274.265C500.315 270.274 501.113 265.542 501.113 260.069C501.113 254.596 500.315 249.893 498.718 245.959C497.122 241.968 494.87 238.947 491.963 236.894C489.112 234.785 485.806 233.73 482.043 233.73C478.28 233.73 474.945 234.785 472.037 236.894C469.187 238.947 466.963 241.968 465.367 245.959C463.771 249.893 462.973 254.596 462.973 260.069C462.973 265.542 463.771 270.274 465.367 274.265C466.963 278.199 469.187 281.22 472.037 283.33C474.945 285.382 478.28 286.408 482.043 286.408Z" fill="white"/>
<path d="M0 8V290.234H282.234V8H0ZM246.993 254.904H35.2413V43.2287H246.993V254.904ZM175.295 242.756L81.5208 149.016L175.295 55.2752V105.183L131.446 149.016L175.295 192.849V242.756Z" fill="white"/>
</svg>
