<svg width="286" height="92" viewBox="0 0 286 92" fill="none" xmlns="http://www.w3.org/2000/svg">
<path d="M109.319 27.9297C107.173 27.9297 105.077 27.6954 103.029 27.2267C101.007 26.7334 99.3415 26.0797 98.0342 25.2657L100.846 18.9017C102.08 19.617 103.461 20.1967 104.99 20.6407C106.52 21.06 107.987 21.2697 109.393 21.2697C110.602 21.2697 111.465 21.1587 111.983 20.9367C112.501 20.69 112.76 20.3324 112.76 19.8637C112.76 19.321 112.415 18.914 111.724 18.6427C111.058 18.3714 109.948 18.0754 108.394 17.7547C106.396 17.3354 104.731 16.8914 103.399 16.4227C102.067 15.9294 100.908 15.14 99.9212 14.0547C98.9345 12.9447 98.4412 11.4524 98.4412 9.5777C98.4412 7.9497 98.8975 6.4697 99.8102 5.1377C100.723 3.8057 102.08 2.75737 103.88 1.9927C105.706 1.22804 107.913 0.845703 110.503 0.845703C112.279 0.845703 114.018 1.04304 115.72 1.4377C117.447 1.8077 118.964 2.3627 120.271 3.1027L117.644 9.4297C115.104 8.14704 112.699 7.5057 110.429 7.5057C108.185 7.5057 107.062 8.04837 107.062 9.1337C107.062 9.6517 107.395 10.0464 108.061 10.3177C108.727 10.5644 109.825 10.8357 111.354 11.1317C113.328 11.5017 114.993 11.9334 116.349 12.4267C117.706 12.8954 118.878 13.6724 119.864 14.7577C120.876 15.843 121.381 17.323 121.381 19.1977C121.381 20.8257 120.925 22.3057 120.012 23.6377C119.1 24.945 117.731 25.9934 115.905 26.7827C114.105 27.5474 111.909 27.9297 109.319 27.9297Z" fill="#1F0051"/>
<path d="M109.319 27.9297C107.173 27.9297 105.077 27.6954 103.029 27.2267C101.007 26.7334 99.3415 26.0797 98.0342 25.2657L100.846 18.9017C102.08 19.617 103.461 20.1967 104.99 20.6407C106.52 21.06 107.987 21.2697 109.393 21.2697C110.602 21.2697 111.465 21.1587 111.983 20.9367C112.501 20.69 112.76 20.3324 112.76 19.8637C112.76 19.321 112.415 18.914 111.724 18.6427C111.058 18.3714 109.948 18.0754 108.394 17.7547C106.396 17.3354 104.731 16.8914 103.399 16.4227C102.067 15.9294 100.908 15.14 99.9212 14.0547C98.9345 12.9447 98.4412 11.4524 98.4412 9.5777C98.4412 7.9497 98.8975 6.4697 99.8102 5.1377C100.723 3.8057 102.08 2.75737 103.88 1.9927C105.706 1.22804 107.913 0.845703 110.503 0.845703C112.279 0.845703 114.018 1.04304 115.72 1.4377C117.447 1.8077 118.964 2.3627 120.271 3.1027L117.644 9.4297C115.104 8.14704 112.699 7.5057 110.429 7.5057C108.185 7.5057 107.062 8.04837 107.062 9.1337C107.062 9.6517 107.395 10.0464 108.061 10.3177C108.727 10.5644 109.825 10.8357 111.354 11.1317C113.328 11.5017 114.993 11.9334 116.349 12.4267C117.706 12.8954 118.878 13.6724 119.864 14.7577C120.876 15.843 121.381 17.323 121.381 19.1977C121.381 20.8257 120.925 22.3057 120.012 23.6377C119.1 24.945 117.731 25.9934 115.905 26.7827C114.105 27.5474 111.909 27.9297 109.319 27.9297Z" fill="white"/>
<path d="M138.83 17.9397V27.3377H130.098V17.8287L120.33 1.4377H129.543L134.834 10.3917L140.162 1.4377H148.598L138.83 17.9397Z" fill="#1F0051"/>
<path d="M138.83 17.9397V27.3377H130.098V17.8287L120.33 1.4377H129.543L134.834 10.3917L140.162 1.4377H148.598L138.83 17.9397Z" fill="white"/>
<path d="M175.236 1.4377V27.3377H168.058L158.216 15.5717V27.3377H149.706V1.4377H156.884L166.726 13.2037V1.4377H175.236Z" fill="#1F0051"/>
<path d="M175.236 1.4377V27.3377H168.058L158.216 15.5717V27.3377H149.706V1.4377H156.884L166.726 13.2037V1.4377H175.236Z" fill="white"/>
<path d="M200.977 20.7517V27.3377H179.443V1.4377H200.496V8.0237H188.027V11.0577H198.979V17.3477H188.027V20.7517H200.977Z" fill="#1F0051"/>
<path d="M200.977 20.7517V27.3377H179.443V1.4377H200.496V8.0237H188.027V11.0577H198.979V17.3477H188.027V20.7517H200.977Z" fill="white"/>
<path d="M215.439 20.8257H213.071V27.3377H204.339V1.4377H216.808C219.201 1.4377 221.285 1.83237 223.061 2.6217C224.837 3.41104 226.206 4.5457 227.168 6.0257C228.13 7.5057 228.611 9.23237 228.611 11.2057C228.611 13.0557 228.192 14.6714 227.353 16.0527C226.514 17.434 225.306 18.5317 223.727 19.3457L229.166 27.3377H219.842L215.439 20.8257ZM219.805 11.2057C219.805 10.2437 219.509 9.5037 218.917 8.9857C218.325 8.44304 217.437 8.1717 216.253 8.1717H213.071V14.2397H216.253C217.437 14.2397 218.325 13.9807 218.917 13.4627C219.509 12.92 219.805 12.1677 219.805 11.2057Z" fill="#1F0051"/>
<path d="M215.439 20.8257H213.071V27.3377H204.339V1.4377H216.808C219.201 1.4377 221.285 1.83237 223.061 2.6217C224.837 3.41104 226.206 4.5457 227.168 6.0257C228.13 7.5057 228.611 9.23237 228.611 11.2057C228.611 13.0557 228.192 14.6714 227.353 16.0527C226.514 17.434 225.306 18.5317 223.727 19.3457L229.166 27.3377H219.842L215.439 20.8257ZM219.805 11.2057C219.805 10.2437 219.509 9.5037 218.917 8.9857C218.325 8.44304 217.437 8.1717 216.253 8.1717H213.071V14.2397H216.253C217.437 14.2397 218.325 13.9807 218.917 13.4627C219.509 12.92 219.805 12.1677 219.805 11.2057Z" fill="white"/>
<path d="M249.039 13.6847H256.624V24.6367C255.095 25.6974 253.319 26.5114 251.296 27.0787C249.274 27.646 247.288 27.9297 245.339 27.9297C242.577 27.9297 240.098 27.3624 237.902 26.2277C235.707 25.0684 233.98 23.465 232.722 21.4177C231.489 19.3457 230.872 17.0024 230.872 14.3877C230.872 11.773 231.489 9.44204 232.722 7.3947C233.98 5.3227 235.719 3.71937 237.939 2.5847C240.184 1.42537 242.712 0.845703 245.524 0.845703C248.065 0.845703 250.334 1.27737 252.332 2.1407C254.355 2.97937 256.032 4.2127 257.364 5.8407L251.777 10.7617C250.149 8.86237 248.213 7.9127 245.968 7.9127C244.044 7.9127 242.515 8.49237 241.38 9.6517C240.246 10.811 239.678 12.3897 239.678 14.3877C239.678 16.3364 240.233 17.9027 241.343 19.0867C242.478 20.2707 243.983 20.8627 245.857 20.8627C246.967 20.8627 248.028 20.653 249.039 20.2337V13.6847Z" fill="#1F0051"/>
<path d="M249.039 13.6847H256.624V24.6367C255.095 25.6974 253.319 26.5114 251.296 27.0787C249.274 27.646 247.288 27.9297 245.339 27.9297C242.577 27.9297 240.098 27.3624 237.902 26.2277C235.707 25.0684 233.98 23.465 232.722 21.4177C231.489 19.3457 230.872 17.0024 230.872 14.3877C230.872 11.773 231.489 9.44204 232.722 7.3947C233.98 5.3227 235.719 3.71937 237.939 2.5847C240.184 1.42537 242.712 0.845703 245.524 0.845703C248.065 0.845703 250.334 1.27737 252.332 2.1407C254.355 2.97937 256.032 4.2127 257.364 5.8407L251.777 10.7617C250.149 8.86237 248.213 7.9127 245.968 7.9127C244.044 7.9127 242.515 8.49237 241.38 9.6517C240.246 10.811 239.678 12.3897 239.678 14.3877C239.678 16.3364 240.233 17.9027 241.343 19.0867C242.478 20.2707 243.983 20.8627 245.857 20.8627C246.967 20.8627 248.028 20.653 249.039 20.2337V13.6847Z" fill="white"/>
<path d="M275.737 17.9397V27.3377H267.005V17.8287L257.237 1.4377H266.45L271.741 10.3917L277.069 1.4377H285.505L275.737 17.9397Z" fill="#1F0051"/>
<path d="M275.737 17.9397V27.3377H267.005V17.8287L257.237 1.4377H266.45L271.741 10.3917L277.069 1.4377H285.505L275.737 17.9397Z" fill="white"/>
<path d="M99.6622 33.4377H112.427C115.313 33.4377 117.854 33.968 120.049 35.0287C122.269 36.0647 123.984 37.557 125.192 39.5057C126.426 41.4544 127.042 43.7484 127.042 46.3877C127.042 49.027 126.426 51.321 125.192 53.2697C123.984 55.2184 122.269 56.723 120.049 57.7837C117.854 58.8197 115.313 59.3377 112.427 59.3377H99.6622V33.4377ZM112.057 52.5297C113.932 52.5297 115.424 51.9994 116.534 50.9387C117.669 49.8534 118.236 48.3364 118.236 46.3877C118.236 44.439 117.669 42.9344 116.534 41.8737C115.424 40.7884 113.932 40.2457 112.057 40.2457H108.394V52.5297H112.057Z" fill="#1F0051"/>
<path d="M99.6622 33.4377H112.427C115.313 33.4377 117.854 33.968 120.049 35.0287C122.269 36.0647 123.984 37.557 125.192 39.5057C126.426 41.4544 127.042 43.7484 127.042 46.3877C127.042 49.027 126.426 51.321 125.192 53.2697C123.984 55.2184 122.269 56.723 120.049 57.7837C117.854 58.8197 115.313 59.3377 112.427 59.3377H99.6622V33.4377ZM112.057 52.5297C113.932 52.5297 115.424 51.9994 116.534 50.9387C117.669 49.8534 118.236 48.3364 118.236 46.3877C118.236 44.439 117.669 42.9344 116.534 41.8737C115.424 40.7884 113.932 40.2457 112.057 40.2457H108.394V52.5297H112.057Z" fill="white"/>
<path d="M130.231 33.4377H138.963V59.3377H130.231V33.4377Z" fill="#1F0051"/>
<path d="M130.231 33.4377H138.963V59.3377H130.231V33.4377Z" fill="white"/>
<path d="M160.297 45.6847H167.882V56.6367C166.353 57.6974 164.577 58.5114 162.554 59.0787C160.531 59.646 158.546 59.9297 156.597 59.9297C153.834 59.9297 151.355 59.3624 149.16 58.2277C146.965 57.0684 145.238 55.465 143.98 53.4177C142.747 51.3457 142.13 49.0024 142.13 46.3877C142.13 43.773 142.747 41.442 143.98 39.3947C145.238 37.3227 146.977 35.7194 149.197 34.5847C151.442 33.4254 153.97 32.8457 156.782 32.8457C159.323 32.8457 161.592 33.2774 163.59 34.1407C165.613 34.9794 167.29 36.2127 168.622 37.8407L163.035 42.7617C161.407 40.8624 159.471 39.9127 157.226 39.9127C155.302 39.9127 153.773 40.4924 152.638 41.6517C151.503 42.811 150.936 44.3897 150.936 46.3877C150.936 48.3364 151.491 49.9027 152.601 51.0867C153.736 52.2707 155.24 52.8627 157.115 52.8627C158.225 52.8627 159.286 52.653 160.297 52.2337V45.6847Z" fill="#1F0051"/>
<path d="M160.297 45.6847H167.882V56.6367C166.353 57.6974 164.577 58.5114 162.554 59.0787C160.531 59.646 158.546 59.9297 156.597 59.9297C153.834 59.9297 151.355 59.3624 149.16 58.2277C146.965 57.0684 145.238 55.465 143.98 53.4177C142.747 51.3457 142.13 49.0024 142.13 46.3877C142.13 43.773 142.747 41.442 143.98 39.3947C145.238 37.3227 146.977 35.7194 149.197 34.5847C151.442 33.4254 153.97 32.8457 156.782 32.8457C159.323 32.8457 161.592 33.2774 163.59 34.1407C165.613 34.9794 167.29 36.2127 168.622 37.8407L163.035 42.7617C161.407 40.8624 159.471 39.9127 157.226 39.9127C155.302 39.9127 153.773 40.4924 152.638 41.6517C151.503 42.811 150.936 44.3897 150.936 46.3877C150.936 48.3364 151.491 49.9027 152.601 51.0867C153.736 52.2707 155.24 52.8627 157.115 52.8627C158.225 52.8627 159.286 52.653 160.297 52.2337V45.6847Z" fill="white"/>
<path d="M171.603 33.4377H180.335V59.3377H171.603V33.4377Z" fill="#1F0051"/>
<path d="M171.603 33.4377H180.335V59.3377H171.603V33.4377Z" fill="white"/>
<path d="M190.162 40.2087H182.577V33.4377H206.479V40.2087H198.894V59.3377H190.162V40.2087Z" fill="#1F0051"/>
<path d="M190.162 40.2087H182.577V33.4377H206.479V40.2087H198.894V59.3377H190.162V40.2087Z" fill="white"/>
<path d="M225.095 54.8237H215.253L213.514 59.3377H204.634L215.956 33.4377H224.54L235.862 59.3377H226.834L225.095 54.8237ZM222.69 48.5337L220.174 42.0217L217.658 48.5337H222.69Z" fill="#1F0051"/>
<path d="M225.095 54.8237H215.253L213.514 59.3377H204.634L215.956 33.4377H224.54L235.862 59.3377H226.834L225.095 54.8237ZM222.69 48.5337L220.174 42.0217L217.658 48.5337H222.69Z" fill="white"/>
<path d="M237.256 33.4377H245.988V52.5667H257.68V59.3377H237.256V33.4377Z" fill="#1F0051"/>
<path d="M237.256 33.4377H245.988V52.5667H257.68V59.3377H237.256V33.4377Z" fill="white"/>
<path d="M108.394 72.0237V76.4637H119.198V83.0497H108.394V91.3377H99.6622V65.4377H120.715V72.0237H108.394Z" fill="#1F0051"/>
<path d="M108.394 72.0237V76.4637H119.198V83.0497H108.394V91.3377H99.6622V65.4377H120.715V72.0237H108.394Z" fill="white"/>
<path d="M136.872 91.9297C134.085 91.9297 131.581 91.35 129.361 90.1907C127.141 89.0314 125.402 87.428 124.144 85.3807C122.886 83.3087 122.257 80.9777 122.257 78.3877C122.257 75.7977 122.886 73.479 124.144 71.4317C125.402 69.3597 127.141 67.744 129.361 66.5847C131.581 65.4254 134.085 64.8457 136.872 64.8457C139.659 64.8457 142.163 65.4254 144.383 66.5847C146.603 67.744 148.342 69.3597 149.6 71.4317C150.858 73.479 151.487 75.7977 151.487 78.3877C151.487 80.9777 150.858 83.3087 149.6 85.3807C148.342 87.428 146.603 89.0314 144.383 90.1907C142.163 91.35 139.659 91.9297 136.872 91.9297ZM136.872 84.8627C137.957 84.8627 138.932 84.6037 139.795 84.0857C140.683 83.543 141.386 82.7907 141.904 81.8287C142.422 80.842 142.681 79.695 142.681 78.3877C142.681 77.0804 142.422 75.9457 141.904 74.9837C141.386 73.997 140.683 73.2447 139.795 72.7267C138.932 72.184 137.957 71.9127 136.872 71.9127C135.787 71.9127 134.8 72.184 133.912 72.7267C133.049 73.2447 132.358 73.997 131.84 74.9837C131.322 75.9457 131.063 77.0804 131.063 78.3877C131.063 79.695 131.322 80.842 131.84 81.8287C132.358 82.7907 133.049 83.543 133.912 84.0857C134.8 84.6037 135.787 84.8627 136.872 84.8627Z" fill="#1F0051"/>
<path d="M136.872 91.9297C134.085 91.9297 131.581 91.35 129.361 90.1907C127.141 89.0314 125.402 87.428 124.144 85.3807C122.886 83.3087 122.257 80.9777 122.257 78.3877C122.257 75.7977 122.886 73.479 124.144 71.4317C125.402 69.3597 127.141 67.744 129.361 66.5847C131.581 65.4254 134.085 64.8457 136.872 64.8457C139.659 64.8457 142.163 65.4254 144.383 66.5847C146.603 67.744 148.342 69.3597 149.6 71.4317C150.858 73.479 151.487 75.7977 151.487 78.3877C151.487 80.9777 150.858 83.3087 149.6 85.3807C148.342 87.428 146.603 89.0314 144.383 90.1907C142.163 91.35 139.659 91.9297 136.872 91.9297ZM136.872 84.8627C137.957 84.8627 138.932 84.6037 139.795 84.0857C140.683 83.543 141.386 82.7907 141.904 81.8287C142.422 80.842 142.681 79.695 142.681 78.3877C142.681 77.0804 142.422 75.9457 141.904 74.9837C141.386 73.997 140.683 73.2447 139.795 72.7267C138.932 72.184 137.957 71.9127 136.872 71.9127C135.787 71.9127 134.8 72.184 133.912 72.7267C133.049 73.2447 132.358 73.997 131.84 74.9837C131.322 75.9457 131.063 77.0804 131.063 78.3877C131.063 79.695 131.322 80.842 131.84 81.8287C132.358 82.7907 133.049 83.543 133.912 84.0857C134.8 84.6037 135.787 84.8627 136.872 84.8627Z" fill="white"/>
<path d="M165.756 84.8257H163.388V91.3377H154.656V65.4377H167.125C169.518 65.4377 171.602 65.8324 173.378 66.6217C175.154 67.411 176.523 68.5457 177.485 70.0257C178.447 71.5057 178.928 73.2324 178.928 75.2057C178.928 77.0557 178.509 78.6714 177.67 80.0527C176.832 81.434 175.623 82.5317 174.044 83.3457L179.483 91.3377H170.159L165.756 84.8257ZM170.122 75.2057C170.122 74.2437 169.826 73.5037 169.234 72.9857C168.642 72.443 167.754 72.1717 166.57 72.1717H163.388V78.2397H166.57C167.754 78.2397 168.642 77.9807 169.234 77.4627C169.826 76.92 170.122 76.1677 170.122 75.2057Z" fill="#1F0051"/>
<path d="M165.756 84.8257H163.388V91.3377H154.656V65.4377H167.125C169.518 65.4377 171.602 65.8324 173.378 66.6217C175.154 67.411 176.523 68.5457 177.485 70.0257C178.447 71.5057 178.928 73.2324 178.928 75.2057C178.928 77.0557 178.509 78.6714 177.67 80.0527C176.832 81.434 175.623 82.5317 174.044 83.3457L179.483 91.3377H170.159L165.756 84.8257ZM170.122 75.2057C170.122 74.2437 169.826 73.5037 169.234 72.9857C168.642 72.443 167.754 72.1717 166.57 72.1717H163.388V78.2397H166.57C167.754 78.2397 168.642 77.9807 169.234 77.4627C169.826 76.92 170.122 76.1677 170.122 75.2057Z" fill="white"/>
<path d="M194.621 91.9297C190.649 91.9297 187.554 90.8567 185.334 88.7107C183.114 86.5647 182.004 83.5554 182.004 79.6827V65.4377H190.736V79.4237C190.736 81.323 191.069 82.7044 191.735 83.5677C192.425 84.431 193.412 84.8627 194.695 84.8627C195.977 84.8627 196.952 84.431 197.618 83.5677C198.308 82.7044 198.654 81.323 198.654 79.4237V65.4377H207.238V79.6827C207.238 83.5554 206.128 86.5647 203.908 88.7107C201.688 90.8567 198.592 91.9297 194.621 91.9297Z" fill="#1F0051"/>
<path d="M194.621 91.9297C190.649 91.9297 187.554 90.8567 185.334 88.7107C183.114 86.5647 182.004 83.5554 182.004 79.6827V65.4377H190.736V79.4237C190.736 81.323 191.069 82.7044 191.735 83.5677C192.425 84.431 193.412 84.8627 194.695 84.8627C195.977 84.8627 196.952 84.431 197.618 83.5677C198.308 82.7044 198.654 81.323 198.654 79.4237V65.4377H207.238V79.6827C207.238 83.5554 206.128 86.5647 203.908 88.7107C201.688 90.8567 198.592 91.9297 194.621 91.9297Z" fill="white"/>
<path d="M234.365 91.3377L234.291 79.5347L228.667 89.0067H224.819L219.195 79.9417V91.3377H211.24V65.4377H218.418L226.854 79.2387L235.068 65.4377H242.246L242.32 91.3377H234.365Z" fill="#1F0051"/>
<path d="M234.365 91.3377L234.291 79.5347L228.667 89.0067H224.819L219.195 79.9417V91.3377H211.24V65.4377H218.418L226.854 79.2387L235.068 65.4377H242.246L242.32 91.3377H234.365Z" fill="white"/>
<path d="M0 2.33683V90.9769H88.64V2.33683H0ZM77.572 79.881H11.0681V13.4009H77.572V79.881ZM55.0541 76.0658L25.6029 46.6251L55.0541 17.1844V32.8585L41.2827 46.6251L55.0541 60.3916V76.0658Z" fill="#1F0051"/>
<path d="M0 2.33683V90.9769H88.64V2.33683H0ZM77.572 79.881H11.0681V13.4009H77.572V79.881ZM55.0541 76.0658L25.6029 46.6251L55.0541 17.1844V32.8585L41.2827 46.6251L55.0541 60.3916V76.0658Z" fill="white"/>
</svg>
