<svg width="189" height="46" viewBox="0 0 189 46" fill="none" xmlns="http://www.w3.org/2000/svg">
<path d="M62.4975 1.24093C62.8247 1.91196 62.8247 4.26059 62.4975 4.59611C60.8614 3.58955 59.5526 2.91852 58.5709 2.91852C57.5893 2.91852 56.9348 3.25404 56.9348 4.26059C56.9348 5.26714 57.5893 5.60266 59.5526 5.93818C61.1886 6.60921 63.4792 7.61577 63.4792 10.2999C63.4792 13.3196 61.1886 14.9972 58.2437 14.9972C56.6076 14.9972 54.9715 14.6616 53.9899 13.9906C53.6627 13.6551 53.6627 10.9709 53.9899 10.6354C55.626 11.642 56.9348 12.313 58.2437 12.313C59.5526 12.313 59.8798 11.642 59.8798 10.9709C59.8798 9.96439 59.2254 9.96439 57.2621 9.29336C55.626 8.62232 53.3354 7.61577 53.3354 4.93162C53.3354 2.583 54.9715 0.234375 58.5709 0.234375C60.5342 0.234375 61.8431 0.905411 62.4975 1.24093Z" fill="white"/>
<path d="M73.9537 14.9953C72.9721 15.3308 71.336 15.3308 70.3544 14.9953V9.96254L65.1189 0.568045C66.4278 0.232527 68.0638 0.232527 69.0455 0.568045L72.3177 6.60736L75.5898 0.568045C76.5715 0.232527 78.2076 0.232527 79.1892 0.568045L73.9537 9.96254V14.9953Z" fill="white"/>
<path d="M94.5647 14.9953C93.583 15.3308 92.9286 15.3308 91.9469 14.9953L85.4026 6.60736V14.9953C84.421 15.3308 82.7849 15.3308 81.8032 14.9953V0.568045C82.7849 0.232527 83.4393 0.232527 84.421 0.568045L90.9653 8.95599V0.568045C91.9469 0.232527 93.583 0.232527 94.5647 0.568045V14.9953Z" fill="white"/>
<path d="M107.98 11.9779C108.307 12.9845 108.307 13.991 107.98 14.9976H98.1631V0.570313H107.98C108.307 1.57687 108.307 2.58342 107.98 3.58997H101.762V6.27412H107.325C107.652 7.28067 107.652 8.28722 107.325 9.29378H101.762V12.3134H107.98V11.9779Z" fill="white"/>
<path d="M117.145 0.570313C120.417 0.570313 122.381 2.58342 122.381 5.26756C122.381 7.28067 121.399 8.62274 119.763 9.62929L123.035 14.9976C122.054 15.3331 120.417 15.3331 119.109 14.9976L116.164 9.96481H114.855V14.9976C113.873 15.3331 112.237 15.3331 111.255 14.9976V0.570313H117.145ZM114.855 7.28067H117.145C118.127 7.28067 118.781 6.60963 118.781 5.60308C118.781 4.26101 117.8 3.58997 117.145 3.58997H114.855V7.28067Z" fill="white"/>
<path d="M134.152 7.95128C135.134 7.61577 136.443 7.61577 137.424 7.95128V14.3261C136.443 14.9972 134.807 15.3327 132.516 15.3327C127.608 15.3327 124.663 11.9775 124.663 7.61577C124.663 3.25404 127.935 0.234375 132.843 0.234375C134.807 0.234375 136.443 0.905411 137.097 1.24093C137.424 1.57645 137.424 4.26059 137.097 4.59611C135.461 3.58955 134.152 3.25404 132.843 3.25404C130.226 3.25404 128.262 4.93162 128.262 7.95128C128.262 10.9709 130.226 12.6485 132.843 12.6485C133.17 12.6485 133.498 12.6485 134.152 12.6485V7.95128Z" fill="white"/>
<path d="M148.561 14.9953C147.579 15.3308 145.943 15.3308 144.961 14.9953V9.96254L139.726 0.568045C140.707 0.232527 142.344 0.232527 143.325 0.568045L146.597 6.60736L149.87 0.568045C150.851 0.232527 152.487 0.232527 153.469 0.568045L148.233 9.96254V14.9953H148.561Z" fill="white"/>
<path d="M63.4818 20.3633C71.0078 20.3633 75.9161 25.396 75.9161 32.4419C75.9161 39.4878 71.0078 44.5206 63.4818 44.5206H54.647V20.3633H63.4818ZM63.4818 39.4878C67.0812 39.4878 70.0262 37.1392 70.0262 32.4419C70.0262 27.7447 67.0812 25.396 63.4818 25.396H60.2097V39.4878H63.4818Z" fill="white"/>
<path d="M86.0574 44.5222C84.4213 44.8577 81.8036 44.8577 80.1675 44.5222V20.3649C81.8036 20.0294 84.4213 20.0294 86.0574 20.3649V44.5222Z" fill="white"/>
<path d="M106.028 32.7805C107.664 32.445 109.955 32.445 111.591 32.7805V43.1816C110.282 44.1881 107.01 45.1947 103.738 45.1947C95.5572 45.1947 90.3218 39.4909 90.3218 32.445C90.3218 25.3991 95.23 19.6953 103.738 19.6953C107.01 19.6953 109.628 20.7019 110.936 21.7084C111.264 22.3795 111.264 26.4057 110.936 27.0767C108.319 25.3991 106.355 24.7281 104.065 24.7281C99.8111 24.7281 96.2117 27.7477 96.2117 32.445C96.2117 37.4778 99.8111 40.1619 104.065 40.1619C104.719 40.1619 105.374 40.1619 106.028 39.8264V32.7805Z" fill="white"/>
<path d="M123.038 44.5222C121.402 44.8577 118.784 44.8577 117.148 44.5222V20.3649C118.784 20.0294 121.402 20.0294 123.038 20.3649V44.5222Z" fill="white"/>
<path d="M145.278 20.3633C145.605 22.0409 145.605 23.7185 145.278 25.396H139.06V44.5206C137.424 44.8561 134.807 44.8561 133.171 44.5206V25.396H126.953C126.626 23.7185 126.626 22.0409 126.953 20.3633H145.278Z" fill="white"/>
<path d="M169.176 44.5261C167.54 44.8616 164.922 44.8616 163.286 44.5261L161.323 39.8289H152.815L151.179 44.5261C149.543 44.8616 146.925 44.8616 145.289 44.5261L154.778 20.3688C156.414 20.0333 158.051 20.0333 159.687 20.3688L169.176 44.5261ZM159.687 35.1316L157.069 28.0857L154.778 35.1316H159.687Z" fill="white"/>
<path d="M188.144 39.4933C188.471 41.1709 188.471 42.8485 188.144 44.5261H172.765V20.3688C174.401 20.0333 177.019 20.0333 178.655 20.3688V39.4933H188.144Z" fill="white"/>
<path d="M0.984375 0.578125V44.8665H44.177V0.578125H0.984375ZM38.9415 39.4982H6.54706V6.28193H38.9415V39.4982ZM27.8161 37.4851L13.4186 23.0578L27.8161 8.29504V16.0119L21.2718 23.0578L28.1434 30.1037V37.4851H27.8161Z" fill="white"/>
</svg>
