<svg width="144" height="28" viewBox="0 0 144 28" fill="none" xmlns="http://www.w3.org/2000/svg">
<path d="M16.4588 18.431L12.3431 14.2896L16.4588 10.1481V5.41504L7.68457 14.2896L16.4588 23.1641V18.431Z" fill="#ED1C24"/>
<path d="M26.5488 0.953125H0V27.6677H26.5488V0.953125ZM23.202 24.2999H3.30164V4.27538H23.202V24.2999Z" fill="#ED1C24"/>
<path d="M40.888 15.4281C42.5162 15.4281 43.9182 15.0641 45.0489 14.3814C45.1394 14.1539 45.1846 13.6077 45.1846 12.7885C45.1846 11.9694 45.1394 11.4687 45.0489 11.2867C43.6469 12.1514 42.3353 12.6065 41.0689 12.6065C39.8025 12.6065 38.717 12.1969 37.8577 11.4232C36.9984 10.604 36.5913 9.55731 36.5913 8.23751C36.5913 6.91771 36.9984 5.82546 37.8577 5.05179C38.717 4.2326 39.7573 3.86852 41.0689 3.86852C42.29 3.86852 43.6469 4.32362 45.0489 5.18832C45.1394 5.00628 45.2299 4.55117 45.1846 3.68648C45.1846 2.86729 45.1394 2.32117 45.0489 2.09361C43.9182 1.41096 42.5162 1.04687 40.888 1.04687C38.5361 1.04687 36.6818 1.72953 35.2797 3.14035C33.8776 4.50566 33.1992 6.23505 33.1992 8.28302C33.1992 10.331 33.8776 12.0149 35.2797 13.4257C36.6818 14.7455 38.5361 15.4281 40.888 15.4281Z" fill="white"/>
<path d="M48.1714 1.36798V15.1121C49.0759 15.2486 49.9353 15.2486 50.7946 15.1121L57.1718 7.05677V15.1121C58.3025 15.2941 59.4332 15.2941 60.5186 15.1121V1.36798C59.6141 1.23145 58.7547 1.23145 57.8954 1.36798L51.5183 9.42331V1.36798C50.4328 1.18594 49.3021 1.18594 48.1714 1.36798Z" fill="white"/>
<path d="M63.7656 15.1111C64.8963 15.2932 66.027 15.2932 67.1125 15.1111V9.60437H72.766V15.1566C73.8967 15.3387 75.0274 15.3387 76.1129 15.1566V1.367C74.9822 1.18496 73.8515 1.18496 72.766 1.367V6.78273H67.1125V1.367C65.9818 1.18496 64.8511 1.18496 63.7656 1.367V15.1111Z" fill="white"/>
<path d="M79.4163 15.1099H88.9594C89.1403 14.1542 89.1403 13.244 88.9594 12.2883H82.7632V9.55768H88.1905C88.3715 8.64748 88.3715 7.69176 88.1905 6.73604H82.7632V4.14195H88.9142C89.0951 3.23175 89.0951 2.27603 88.9142 1.32031H79.3711V15.1099H79.4163Z" fill="white"/>
<path d="M100.86 2.63757C99.9106 1.77287 98.6894 1.36328 97.1517 1.36328H91.7695V15.1074C92.9002 15.2894 94.0309 15.2894 95.1164 15.1074V10.6019H97.1064C98.6442 10.6019 99.8653 10.1923 100.815 9.32759C101.765 8.46289 102.262 7.37065 102.262 6.00534C102.308 4.59452 101.81 3.50227 100.86 2.63757ZM97.1517 7.78024H95.1616V4.18492H97.1517C98.1467 4.18492 98.8703 4.77656 98.8703 6.00534C98.8703 7.18861 98.1467 7.78024 97.1517 7.78024Z" fill="white"/>
<path d="M104.797 15.1074C105.928 15.2894 107.058 15.2894 108.144 15.1074V4.18492H113.797C113.978 3.27472 113.978 2.319 113.797 1.36328H104.797V15.1074Z" fill="white"/>
<path d="M125.231 15.1111C126.362 15.2932 127.492 15.2932 128.578 15.1111V1.367C127.673 1.23047 126.814 1.23047 125.954 1.367L119.577 9.42233V1.367C118.447 1.18496 117.316 1.18496 116.23 1.367V15.1111C117.135 15.2477 117.994 15.2477 118.854 15.1111L125.231 7.05579V15.1111Z" fill="white"/>
<path d="M138.894 10.4654V15.1074C140.024 15.2894 141.155 15.2894 142.241 15.1074V5.50472V1.36328H136.723C135.185 1.36328 133.964 1.77287 133.014 2.63757C132.11 3.45676 131.612 4.549 131.612 5.91432C131.612 7.73473 132.607 9.23657 134.235 9.96474L130.934 15.1074C131.431 15.1984 132.019 15.2439 132.743 15.2439C133.466 15.2439 134.1 15.1984 134.597 15.1074L137.311 10.9205L137.627 10.4654H138.894ZM136.813 7.64371C135.818 7.64371 135.095 7.05207 135.095 5.91432C135.095 4.77656 135.818 4.18492 136.813 4.18492H138.894V4.73105V7.64371H137.266H136.813Z" fill="white"/>
<path d="M33.9692 19.2021V27.3939H44.5074V19.2021C43.8289 19.111 43.1505 19.111 42.5173 19.2021V25.71H40.2559V19.2021C39.5775 19.111 38.8991 19.111 38.2659 19.2021V25.71H36.0045V19.2021C35.3261 19.111 34.6477 19.111 33.9692 19.2021Z" fill="white"/>
<path d="M46.5352 27.3948C47.2136 27.4858 47.892 27.4858 48.5252 27.3948V23.4354L51.3293 27.3948C51.6007 27.4403 52.0077 27.4858 52.5052 27.4858C53.0028 27.4858 53.4098 27.4403 53.6812 27.3948L50.6509 23.1623L53.5907 19.1574C53.3194 19.1119 52.9123 19.0664 52.4148 19.0664C51.9173 19.0664 51.5102 19.1119 51.2389 19.1574L48.5252 22.8893V19.1574C47.8468 19.0664 47.1683 19.0664 46.5352 19.1574V27.3948Z" fill="white"/>
<path d="M58.5763 27.6224C59.8426 27.6224 60.8829 27.2128 61.697 26.3936C62.5111 25.5744 62.9181 24.5276 62.9181 23.3444C62.9181 22.1611 62.5111 21.1144 61.697 20.2952C60.8829 19.476 59.8426 19.0664 58.5763 19.0664C57.3099 19.0664 56.2696 19.476 55.4555 20.2952C54.6414 21.1144 54.2344 22.1156 54.2344 23.3444C54.2344 24.5276 54.6414 25.5744 55.4555 26.3936C56.2696 27.1672 57.3099 27.6224 58.5763 27.6224ZM56.9481 21.4329C57.4003 20.9323 57.9431 20.7048 58.5763 20.7048C59.2095 20.7048 59.7522 20.9323 60.2045 21.4329C60.6567 21.888 60.8829 22.5252 60.8829 23.3444C60.8829 24.1181 60.6567 24.7552 60.2045 25.2558C59.7522 25.7109 59.2095 25.984 58.5763 25.984C57.9431 25.984 57.4003 25.7564 56.9481 25.2558C56.4958 24.7552 56.2696 24.1636 56.2696 23.3444C56.3149 22.5252 56.541 21.888 56.9481 21.4329Z" fill="white"/>
<path d="M69.6533 27.395C70.3317 27.486 71.0101 27.486 71.6433 27.395V19.2031H65.7185L65.1305 24.8919C65.0853 25.4836 64.7687 25.8021 64.3164 25.8021C64.1807 25.8021 64.0902 25.8021 63.9546 25.7566C63.8641 26.3027 63.8641 26.8944 63.9546 27.4405C64.2259 27.5315 64.5425 27.577 64.9043 27.577C66.216 27.577 66.9848 26.7578 67.1657 25.074L67.5728 20.887H69.6533V27.395Z" fill="white"/>
<path d="M76.391 19.2021L73.0894 27.3939C73.7678 27.4849 74.4914 27.4849 75.1698 27.3939L75.7578 25.8466H78.7429L79.3308 27.3939C80.0092 27.4849 80.6877 27.4849 81.4113 27.3939L78.1097 19.2021C77.5217 19.111 76.979 19.111 76.391 19.2021ZM76.391 24.1627L77.2503 21.7961L78.1097 24.1627H76.391Z" fill="white"/>
<path d="M91.7616 20.887C91.8521 20.3409 91.8521 19.7948 91.7616 19.2031H86.2891V27.395H89.5002C90.4048 27.395 91.1285 27.1219 91.7164 26.6668C92.3044 26.1662 92.5757 25.5291 92.5757 24.7554C92.5757 23.9817 92.3044 23.3446 91.7164 22.844C91.1737 22.3433 90.4048 22.1158 89.5002 22.1158H88.3243V20.887H91.7616ZM89.5002 23.7997C90.0882 23.7997 90.5405 24.1638 90.5405 24.7554C90.5405 25.3925 90.0882 25.7111 89.5002 25.7111H88.3243V23.7542H89.5002V23.7997Z" fill="white"/>
<path d="M101.446 27.3929V19.2011C100.904 19.1101 100.406 19.1101 99.8634 19.2011L96.0642 24.0252V19.2011C95.3858 19.1101 94.7074 19.1101 94.0742 19.2011V27.3929C94.617 27.484 95.1145 27.484 95.6572 27.3929L99.4563 22.5688V27.3929C100.09 27.5295 100.768 27.5295 101.446 27.3929Z" fill="white"/>
<path d="M107.728 23.2078C108.406 22.8438 108.858 22.1156 108.858 21.2964C108.858 19.9311 107.728 19.0664 105.918 19.0664C104.923 19.0664 104.109 19.294 103.431 19.7036C103.386 19.8401 103.34 20.1587 103.34 20.6593C103.34 21.1599 103.386 21.4329 103.431 21.524C104.29 21.0234 105.059 20.7503 105.783 20.7503C106.416 20.7503 106.823 21.0689 106.823 21.6605C106.823 22.2066 106.506 22.5707 105.964 22.5707H104.788C104.697 23.1168 104.697 23.6174 104.788 24.1636H106.009C106.642 24.1636 106.959 24.4366 106.959 25.0283C106.959 25.6654 106.371 25.984 105.738 25.984C104.969 25.984 104.155 25.7109 103.34 25.2103C103.295 25.3013 103.25 25.6199 103.25 26.075C103.25 26.5756 103.295 26.8942 103.34 27.0307C104.019 27.4403 104.878 27.6679 105.873 27.6679C106.823 27.6679 107.547 27.4403 108.135 27.0307C108.723 26.6211 109.039 26.0295 109.039 25.2558C108.994 24.3001 108.496 23.5719 107.728 23.2078Z" fill="white"/>
<path d="M115.969 19.2021V22.4333H112.622V19.2021C111.944 19.111 111.266 19.111 110.632 19.2021V27.3939C111.311 27.4849 111.989 27.4849 112.622 27.3939V24.0717H116.014V27.3939C116.693 27.4849 117.371 27.4849 118.004 27.3939V19.2021C117.326 19.111 116.648 19.111 115.969 19.2021Z" fill="white"/>
<path d="M125.64 20.887C125.731 20.3409 125.731 19.7948 125.64 19.2031H119.941V27.395H125.64C125.731 26.8489 125.731 26.2572 125.64 25.7111H121.977V24.0727H125.233C125.324 23.5266 125.324 22.9805 125.233 22.3889H121.977V20.887H125.64Z" fill="white"/>
<path d="M131.565 20.7112C132.289 20.7112 133.103 20.9843 133.917 21.4849C133.962 21.3939 134.008 21.0753 134.008 20.6202C134.008 20.1196 133.962 19.801 133.917 19.6645C133.239 19.2549 132.425 19.0273 131.43 19.0273C130.028 19.0273 128.942 19.4369 128.083 20.2561C127.223 21.0753 126.816 22.0765 126.816 23.3053C126.816 24.5341 127.223 25.5353 128.083 26.3545C128.942 27.1737 130.028 27.5833 131.43 27.5833C132.425 27.5833 133.239 27.3557 133.917 26.9461C133.962 26.8096 134.008 26.491 134.008 25.9904C134.008 25.4898 133.962 25.2168 133.917 25.1257C133.058 25.6263 132.289 25.8994 131.565 25.8994C130.796 25.8994 130.163 25.6719 129.666 25.1712C129.168 24.6706 128.897 24.079 128.897 23.2598C128.897 22.4861 129.168 21.849 129.666 21.3484C130.163 20.9388 130.796 20.7112 131.565 20.7112Z" fill="white"/>
<path d="M138.665 19.2011L135.363 27.3929C136.042 27.484 136.765 27.484 137.444 27.3929L138.032 25.8456H141.017L141.605 27.3929C142.283 27.484 142.962 27.484 143.685 27.3929L140.384 19.2011C139.796 19.1101 139.208 19.1101 138.665 19.2011ZM138.62 24.1617L139.479 21.7952L140.338 24.1617H138.62Z" fill="white"/>
</svg>
