<svg width="119" height="28" viewBox="0 0 119 28" fill="none" xmlns="http://www.w3.org/2000/svg">
<path d="M39.3198 0.615864C39.3198 0.821153 39.3198 1.23173 39.3198 1.64231C39.3198 2.25817 39.3198 2.46346 39.3198 2.66875C38.288 2.05288 37.4626 1.64231 36.8436 1.64231C36.2245 1.64231 35.8118 2.05288 35.8118 2.46346C35.8118 2.66875 36.0182 2.87403 36.2245 3.07932C36.4309 3.28461 36.8436 3.28461 37.4626 3.4899C38.0817 3.69519 38.4944 3.90047 39.1134 4.31105C39.7325 4.72163 39.9388 5.33749 39.9388 6.15864C39.9388 6.9798 39.5261 7.80095 38.9071 8.21152C38.288 8.6221 37.4626 9.03268 36.6372 9.03268C35.6055 9.03268 34.7801 8.82739 33.9547 8.41681C33.9547 8.21152 33.9547 8.00624 33.9547 7.39037C33.9547 6.77451 33.9547 6.56922 33.9547 6.36393C34.9864 6.9798 35.8118 7.39037 36.6372 7.39037C37.4626 7.39037 37.669 6.9798 37.669 6.56922C37.669 6.36393 37.4626 6.15864 37.2563 5.95336C37.0499 5.74807 36.6372 5.74807 36.0182 5.33749C35.3991 5.1322 34.9864 4.92692 34.3674 4.51634C33.7483 4.10576 33.542 3.4899 33.542 2.66875C33.542 1.84759 33.7483 1.23173 34.3674 0.615864C35.1928 0.205288 36.0182 0 37.0499 0C37.8753 0 38.7007 0.205288 39.3198 0.615864Z" fill="#333333"/>
<path d="M46.5431 5.95901V9.03833C45.7177 9.24362 45.0987 9.24362 44.2733 9.03833V5.95901L40.9717 0.210938C41.3844 0.210938 41.5907 0.210938 42.2098 0.210938C42.8288 0.210938 43.0352 0.210938 43.4479 0.210938L45.5114 3.90612L47.5749 0.210938C47.9876 0.210938 48.1939 0.210938 48.813 0.210938C49.432 0.210938 49.6384 0.210938 50.0511 0.210938L46.5431 5.95901Z" fill="#333333"/>
<path d="M59.5462 9.03409C58.9271 9.03409 58.3081 9.03409 57.8954 9.03409L53.7684 3.90189V9.03409C52.943 9.23938 52.3239 9.23938 51.4985 9.03409V0.2067C52.1176 0.2067 52.7366 0.2067 53.1493 0.2067L57.2763 5.3389V0.2067C58.1017 0.00141235 58.7208 0.00141235 59.5462 0.2067V9.03409Z" fill="#333333"/>
<path d="M64.0775 7.19073H67.9981C68.2045 7.8066 68.2045 8.42246 67.9981 9.03833H61.8076V0.210938H67.9981C68.2045 0.826802 68.2045 1.44267 67.9981 2.05853H64.0775V3.70084H67.5854C67.7918 4.3167 67.7918 4.93257 67.5854 5.54843H64.0775V7.19073Z" fill="#333333"/>
<path d="M70.0693 0.210938H73.5773C74.609 0.210938 75.4344 0.416226 76.0535 1.03209C76.6725 1.64795 77.0852 2.26382 77.0852 3.08497C77.0852 4.3167 76.4662 5.13785 75.4344 5.75372L77.4979 9.03833C77.0852 9.03833 76.6725 9.03833 76.2598 9.03833C75.8471 9.03833 75.4344 9.03833 75.0217 9.03833L73.1646 5.95901H72.3392V9.03833C71.5138 9.24362 70.8947 9.24362 70.0693 9.03833V0.210938ZM72.3392 2.05853V4.3167H73.7836C74.4027 4.3167 74.8154 3.90612 74.8154 3.29026C74.8154 2.46911 74.4027 2.05853 73.7836 2.05853H72.3392Z" fill="#333333"/>
<path d="M84.5098 4.72163C85.1288 4.51634 85.9542 4.51634 86.5733 4.72163V8.6221C86.3669 8.82739 85.9542 9.03268 85.3352 9.03268C84.7161 9.03268 84.3034 9.23797 83.6844 9.23797C82.2399 9.23797 81.0018 8.82739 79.9701 8.00624C79.1447 7.18508 78.5256 5.95336 78.5256 4.72163C78.5256 3.4899 78.9383 2.25817 79.9701 1.43702C81.0018 0.410576 82.2399 0 83.6844 0C84.7161 0 85.7479 0.205288 86.3669 0.615864C86.3669 0.821153 86.3669 1.02644 86.3669 1.64231C86.3669 2.25817 86.3669 2.46346 86.3669 2.66875C85.5415 2.05288 84.5098 1.84759 83.6844 1.84759C82.859 1.84759 82.2399 2.05288 81.6209 2.66875C81.0018 3.07932 80.7955 3.90047 80.7955 4.72163C80.7955 5.54278 81.0018 6.36393 81.6209 6.77451C82.2399 7.39037 82.859 7.59566 83.6844 7.59566C83.8907 7.59566 84.0971 7.59566 84.5098 7.59566V4.72163Z" fill="#333333"/>
<path d="M93.5861 5.95901V9.03833C92.7607 9.24362 92.1416 9.24362 91.3162 9.03833V5.95901L88.0147 0.210938C88.4274 0.210938 88.6337 0.210938 89.2527 0.210938C89.6654 0.210938 90.0781 0.210938 90.4908 0.210938L92.5543 3.90612L94.6178 0.210938C95.0305 0.210938 95.2369 0.210938 95.8559 0.210938C96.475 0.210938 96.6813 0.210938 97.094 0.210938L93.5861 5.95901Z" fill="#333333"/>
<path d="M34.3662 12.3164H39.9377C42.2075 12.3164 44.0647 12.9323 45.7154 14.3693C47.3662 15.8063 47.9853 17.4486 47.9853 19.7068C47.9853 21.7597 47.1599 23.6073 45.7154 25.0443C44.271 26.4813 42.4139 27.0972 39.9377 27.0972H34.3662V12.3164ZM37.8742 24.0178H39.9377C42.2075 24.0178 44.0647 22.3755 44.0647 19.7068C44.0647 16.8327 42.2075 15.3957 39.9377 15.3957H37.8742V24.0178Z" fill="#333333"/>
<path d="M54.1782 27.0949C52.9401 27.3002 51.702 27.3002 50.4639 27.0949V12.3141C51.702 12.1088 52.9401 12.1088 54.1782 12.3141V27.0949Z" fill="#333333"/>
<path d="M66.7561 19.9125C67.9942 19.7072 69.0259 19.7072 70.264 19.9125V26.2764C69.8513 26.4817 69.0259 26.8923 68.2005 27.0976C67.1688 27.3029 66.3434 27.5081 65.3116 27.5081C62.8354 27.5081 60.7719 26.687 59.3275 25.25C57.883 23.813 57.0576 21.9654 57.0576 19.7072C57.0576 17.449 57.883 15.6014 59.3275 14.1644C60.7719 12.7274 62.8354 11.9062 65.3116 11.9062C67.1688 11.9062 68.6132 12.3168 69.8513 13.138C69.8513 13.3433 70.0577 13.9591 70.0577 14.7803C70.0577 15.6014 70.0577 16.2173 69.8513 16.4226C68.4069 15.3961 66.9624 14.9856 65.518 14.9856C64.0735 14.9856 63.0418 15.3961 62.01 16.2173C60.9783 17.0385 60.5656 18.2702 60.5656 19.7072C60.5656 21.1442 60.9783 22.3759 62.01 23.1971C63.0418 24.0182 64.0735 24.4288 65.518 24.4288C65.9307 24.4288 66.3434 24.4288 66.7561 24.2235V19.9125Z" fill="#333333"/>
<path d="M77.4946 27.0949C76.2565 27.3002 75.0184 27.3002 73.7803 27.0949V12.3141C75.0184 12.1088 76.2565 12.1088 77.4946 12.3141V27.0949Z" fill="#333333"/>
<path d="M91.5297 12.3164C91.736 13.3428 91.736 14.3693 91.5297 15.3957H87.609V27.0972C86.3709 27.3024 85.1328 27.3024 83.8947 27.0972V15.3957H79.9741C79.7677 14.3693 79.7677 13.3428 79.9741 12.3164H91.5297Z" fill="#333333"/>
<path d="M106.594 27.0949C105.356 27.3002 104.118 27.3002 102.88 27.0949L101.641 24.2208H96.2763L95.2446 27.0949C94.0065 27.3002 92.7684 27.3002 91.5303 27.0949L97.5144 12.3141C98.5462 12.1088 99.5779 12.1088 100.61 12.3141L106.594 27.0949ZM97.5144 21.3468H100.61L98.9589 17.0358L97.5144 21.3468Z" fill="#333333"/>
<path d="M112.362 24.0155H118.553C118.759 25.042 118.759 26.0684 118.553 27.0949H108.854V12.3141C110.093 12.1088 111.331 12.1088 112.569 12.3141V24.0155H112.362Z" fill="#333333"/>
<path d="M0.518555 0.210938V27.309H27.7567V0.210938H0.518555ZM24.4551 24.0244H4.0265V3.70083H24.4551V24.0244ZM17.4392 22.7926L8.35985 13.9652L17.4392 4.93256V9.65419L13.3122 13.9652L17.6456 18.2763V22.7926H17.4392Z" fill="#FF00A8"/>
</svg>
