<svg width="580" height="186" viewBox="0 0 580 186" fill="none" xmlns="http://www.w3.org/2000/svg">
<path d="M221.147 55.2C237.422 55.2 245.597 47.1 245.597 37.5C245.597 18.15 216.572 23.4 216.572 17.1C216.572 15.3 218.222 13.8 223.397 13.8C227.972 13.8 232.847 15.075 238.022 17.7L243.347 4.875C237.872 1.8 230.597 0.299998 223.547 0.299998C207.272 0.299998 199.097 8.25 199.097 18C199.097 37.575 228.122 32.25 228.122 38.85C228.122 40.65 226.322 41.7 221.297 41.7C215.522 41.7 208.922 39.825 203.972 36.9L198.272 49.8C203.522 53.025 212.372 55.2 221.147 55.2ZM300.765 1.5H283.665L272.865 19.65L262.14 1.5H243.465L263.265 34.725V54H280.965V34.95L300.765 1.5ZM337.512 1.5V25.35L317.562 1.5H303.012V54H320.262V30.15L340.212 54H354.762V1.5H337.512ZM380.691 40.65V33.75H402.891V21H380.691V14.85H405.966V1.5H363.291V54H406.941V40.65H380.691ZM445.179 54H464.079L453.054 37.8C459.354 34.575 462.954 28.875 462.954 21.3C462.954 9.15 453.654 1.5 439.029 1.5H413.754V54H431.454V40.8H436.254L445.179 54ZM445.104 21.3C445.104 25.125 442.779 27.45 437.904 27.45H431.454V15.15H437.904C442.779 15.15 445.104 17.475 445.104 21.3ZM504.363 39.6C502.188 40.5 500.088 40.875 497.913 40.875C490.338 40.875 485.388 35.625 485.388 27.75C485.388 19.65 490.338 14.625 498.138 14.625C502.788 14.625 506.613 16.575 509.913 20.4L521.238 10.425C515.913 3.9 507.588 0.299998 497.238 0.299998C479.913 0.299998 467.538 11.625 467.538 27.75C467.538 43.875 479.913 55.2 496.863 55.2C504.588 55.2 513.363 52.875 519.738 48.525V26.325H504.363V39.6ZM578.28 1.5H561.18L550.38 19.65L539.655 1.5H520.98L540.78 34.725V54H558.48V34.95L578.28 1.5ZM201.572 119H227.447C244.997 119 257.072 109.025 257.072 92.75C257.072 76.475 244.997 66.5 227.447 66.5H201.572V119ZM219.272 105.2V80.3H226.697C234.122 80.3 239.222 84.725 239.222 92.75C239.222 100.775 234.122 105.2 226.697 105.2H219.272ZM263.535 119H281.235V66.5H263.535V119ZM324.48 104.6C322.305 105.5 320.205 105.875 318.03 105.875C310.455 105.875 305.505 100.625 305.505 92.75C305.505 84.65 310.455 79.625 318.255 79.625C322.905 79.625 326.73 81.575 330.03 85.4L341.355 75.425C336.03 68.9 327.705 65.3 317.355 65.3C300.03 65.3 287.655 76.625 287.655 92.75C287.655 108.875 300.03 120.2 316.98 120.2C324.705 120.2 333.48 117.875 339.855 113.525V91.325H324.48V104.6ZM347.397 119H365.097V66.5H347.397V119ZM385.018 119H402.718V80.225H418.093V66.5H369.643V80.225H385.018V119ZM459.353 119H477.653L454.703 66.5H437.303L414.353 119H432.353L435.878 109.85H455.828L459.353 119ZM440.753 97.1L445.853 83.9L450.953 97.1H440.753ZM480.478 119H521.878V105.275H498.178V66.5H480.478V119ZM244.247 144.85V131.5H201.572V184H219.272V167.2H241.172V153.85H219.272V144.85H244.247ZM276.997 185.2C294.097 185.2 306.622 173.65 306.622 157.75C306.622 141.85 294.097 130.3 276.997 130.3C259.897 130.3 247.372 141.85 247.372 157.75C247.372 173.65 259.897 185.2 276.997 185.2ZM276.997 170.875C270.472 170.875 265.222 165.925 265.222 157.75C265.222 149.575 270.472 144.625 276.997 144.625C283.522 144.625 288.772 149.575 288.772 157.75C288.772 165.925 283.522 170.875 276.997 170.875ZM344.471 184H363.371L352.346 167.8C358.646 164.575 362.246 158.875 362.246 151.3C362.246 139.15 352.946 131.5 338.321 131.5H313.046V184H330.746V170.8H335.546L344.471 184ZM344.396 151.3C344.396 155.125 342.071 157.45 337.196 157.45H330.746V145.15H337.196C342.071 145.15 344.396 147.475 344.396 151.3ZM394.055 185.2C410.18 185.2 419.63 176.125 419.63 160.375V131.5H402.23V159.85C402.23 167.875 399.155 170.875 394.205 170.875C389.255 170.875 386.18 167.875 386.18 159.85V131.5H368.48V160.375C368.48 176.125 377.93 185.2 394.055 185.2ZM490.744 184L490.594 131.5H476.044L459.394 159.475L442.294 131.5H427.744V184H443.869V160.9L455.269 179.275H463.069L474.469 160.075L474.619 184H490.744Z" fill="white"/>
<path d="M221.147 55.2C237.422 55.2 245.597 47.1 245.597 37.5C245.597 18.15 216.572 23.4 216.572 17.1C216.572 15.3 218.222 13.8 223.397 13.8C227.972 13.8 232.847 15.075 238.022 17.7L243.347 4.875C237.872 1.8 230.597 0.299998 223.547 0.299998C207.272 0.299998 199.097 8.25 199.097 18C199.097 37.575 228.122 32.25 228.122 38.85C228.122 40.65 226.322 41.7 221.297 41.7C215.522 41.7 208.922 39.825 203.972 36.9L198.272 49.8C203.522 53.025 212.372 55.2 221.147 55.2ZM300.765 1.5H283.665L272.865 19.65L262.14 1.5H243.465L263.265 34.725V54H280.965V34.95L300.765 1.5ZM337.512 1.5V25.35L317.562 1.5H303.012V54H320.262V30.15L340.212 54H354.762V1.5H337.512ZM380.691 40.65V33.75H402.891V21H380.691V14.85H405.966V1.5H363.291V54H406.941V40.65H380.691ZM445.179 54H464.079L453.054 37.8C459.354 34.575 462.954 28.875 462.954 21.3C462.954 9.15 453.654 1.5 439.029 1.5H413.754V54H431.454V40.8H436.254L445.179 54ZM445.104 21.3C445.104 25.125 442.779 27.45 437.904 27.45H431.454V15.15H437.904C442.779 15.15 445.104 17.475 445.104 21.3ZM504.363 39.6C502.188 40.5 500.088 40.875 497.913 40.875C490.338 40.875 485.388 35.625 485.388 27.75C485.388 19.65 490.338 14.625 498.138 14.625C502.788 14.625 506.613 16.575 509.913 20.4L521.238 10.425C515.913 3.9 507.588 0.299998 497.238 0.299998C479.913 0.299998 467.538 11.625 467.538 27.75C467.538 43.875 479.913 55.2 496.863 55.2C504.588 55.2 513.363 52.875 519.738 48.525V26.325H504.363V39.6ZM578.28 1.5H561.18L550.38 19.65L539.655 1.5H520.98L540.78 34.725V54H558.48V34.95L578.28 1.5ZM201.572 119H227.447C244.997 119 257.072 109.025 257.072 92.75C257.072 76.475 244.997 66.5 227.447 66.5H201.572V119ZM219.272 105.2V80.3H226.697C234.122 80.3 239.222 84.725 239.222 92.75C239.222 100.775 234.122 105.2 226.697 105.2H219.272ZM263.535 119H281.235V66.5H263.535V119ZM324.48 104.6C322.305 105.5 320.205 105.875 318.03 105.875C310.455 105.875 305.505 100.625 305.505 92.75C305.505 84.65 310.455 79.625 318.255 79.625C322.905 79.625 326.73 81.575 330.03 85.4L341.355 75.425C336.03 68.9 327.705 65.3 317.355 65.3C300.03 65.3 287.655 76.625 287.655 92.75C287.655 108.875 300.03 120.2 316.98 120.2C324.705 120.2 333.48 117.875 339.855 113.525V91.325H324.48V104.6ZM347.397 119H365.097V66.5H347.397V119ZM385.018 119H402.718V80.225H418.093V66.5H369.643V80.225H385.018V119ZM459.353 119H477.653L454.703 66.5H437.303L414.353 119H432.353L435.878 109.85H455.828L459.353 119ZM440.753 97.1L445.853 83.9L450.953 97.1H440.753ZM480.478 119H521.878V105.275H498.178V66.5H480.478V119ZM244.247 144.85V131.5H201.572V184H219.272V167.2H241.172V153.85H219.272V144.85H244.247ZM276.997 185.2C294.097 185.2 306.622 173.65 306.622 157.75C306.622 141.85 294.097 130.3 276.997 130.3C259.897 130.3 247.372 141.85 247.372 157.75C247.372 173.65 259.897 185.2 276.997 185.2ZM276.997 170.875C270.472 170.875 265.222 165.925 265.222 157.75C265.222 149.575 270.472 144.625 276.997 144.625C283.522 144.625 288.772 149.575 288.772 157.75C288.772 165.925 283.522 170.875 276.997 170.875ZM344.471 184H363.371L352.346 167.8C358.646 164.575 362.246 158.875 362.246 151.3C362.246 139.15 352.946 131.5 338.321 131.5H313.046V184H330.746V170.8H335.546L344.471 184ZM344.396 151.3C344.396 155.125 342.071 157.45 337.196 157.45H330.746V145.15H337.196C342.071 145.15 344.396 147.475 344.396 151.3ZM394.055 185.2C410.18 185.2 419.63 176.125 419.63 160.375V131.5H402.23V159.85C402.23 167.875 399.155 170.875 394.205 170.875C389.255 170.875 386.18 167.875 386.18 159.85V131.5H368.48V160.375C368.48 176.125 377.93 185.2 394.055 185.2ZM490.744 184L490.594 131.5H476.044L459.394 159.475L442.294 131.5H427.744V184H443.869V160.9L455.269 179.275H463.069L474.469 160.075L474.619 184H490.744Z" fill="white"/>
<path d="M0.296875 5V184H179.297V5H0.296875ZM156.946 161.593H22.6478V27.3429H156.946V161.593ZM111.473 153.888L51.9994 94.4358L111.473 34.9831V66.6356L83.6632 94.4358L111.473 122.236V153.888Z" fill="white"/>
<path d="M0.296875 5V184H179.297V5H0.296875ZM156.946 161.593H22.6478V27.3429H156.946V161.593ZM111.473 153.888L51.9994 94.4358L111.473 34.9831V66.6356L83.6632 94.4358L111.473 122.236V153.888Z" fill="white"/>
</svg>
